<?xml version="1.0" encoding="UTF-8" standalone="no"?>
<!-- Created with Inkscape (http://www.inkscape.org/) -->

<svg
   width="800"
   height="480"
   viewBox="0 0 211.66666 127"
   version="1.1"
   id="svg28742"
   inkscape:version="1.2.1 (9c6d41e, 2022-07-14)"
   sodipodi:docname="go.svg"
   inkscape:export-filename="logo.png"
   inkscape:export-xdpi="204.8"
   inkscape:export-ydpi="204.8"
   xmlns:inkscape="http://www.inkscape.org/namespaces/inkscape"
   xmlns:sodipodi="http://sodipodi.sourceforge.net/DTD/sodipodi-0.dtd"
   xmlns="http://www.w3.org/2000/svg"
   xmlns:svg="http://www.w3.org/2000/svg">
  <sodipodi:namedview
     id="namedview28744"
     pagecolor="#ffffff"
     bordercolor="#000000"
     borderopacity="0.25"
     inkscape:showpageshadow="2"
     inkscape:pageopacity="0.0"
     inkscape:pagecheckerboard="0"
     inkscape:deskcolor="#d1d1d1"
     inkscape:document-units="mm"
     showgrid="false"
     inkscape:zoom="0.32122743"
     inkscape:cx="96.504835"
     inkscape:cy="183.67049"
     inkscape:window-width="1309"
     inkscape:window-height="430"
     inkscape:window-x="0"
     inkscape:window-y="37"
     inkscape:window-maximized="0"
     inkscape:current-layer="layer1" />
  <defs
     id="defs28739">
    <rect
       x="460.08997"
       y="133.81702"
       width="864.54816"
       height="392.42969"
       id="rect466" />
    <rect
       x="460.08997"
       y="133.81702"
       width="864.54816"
       height="392.42969"
       id="rect466-7" />
  </defs>
  <g
     inkscape:label="Layer 1"
     inkscape:groupmode="layer"
     id="layer1">
    <path
       sodipodi:nodetypes="asczsszsszszsssssa"
       id="path10-9-0-7"
       d="M 38.761077,98.931044 C 28.874853,92.421913 30.86602,77.669251 30.595597,64.37269 30.325198,51.076151 30.136673,31.915681 35.856223,28.288737 c 11.754149,-6.160615 16.473135,4.999192 25.435477,5.160004 8.962372,0.160878 17.534621,-10.578004 26.954773,-4.931405 4.421055,2.650086 2.274213,11.648883 5.492875,16.062495 2.46183,3.375794 17.113952,2.507184 19.425622,-1.142378 2.31167,-3.649561 -9.6e-4,-20.008101 -2.87017,-25.533733 C 105.94296,9.5217263 94.194998,1.8209986 81.892055,5.978364 74.781767,8.3810789 67.581609,13.956476 61.623402,13.846819 55.665171,13.737139 50.963253,7.8924352 42.14486,5.6427711 27.557012,1.9212578 19.337307,6.6099332 15.141483,15.456882 10.945682,24.303833 9.4544435,52.333579 10.295111,70.849123 10.991715,86.191531 9.4546485,103.4206 24.503522,113.28427 49.990674,129.98966 112.63246,126.2929 112.42001,88.210914 112.21454,51.376133 39.576668,55.602719 43.014743,70.885623 46.456755,86.186002 89.329114,67.428114 90.88478,89.755578 91.987817,105.58614 53.49581,108.63248 38.761077,98.931044 Z"
       style="mix-blend-mode:normal;fill:#b92323;fill-opacity:1;stroke:#b92323;stroke-width:0.368423px;stroke-linecap:butt;stroke-linejoin:miter;stroke-opacity:1" />
    <g
       aria-label="o"
       transform="matrix(2.0045346,0,0,1.9553834,-805.36797,-272.83068)"
       id="text464"
       style="font-size:74.6667px;font-family:Arial;-inkscape-font-specification:Arial;white-space:pre;shape-inside:url(#rect466);display:inline;fill:#b92323;stroke-width:0">
      <path
         d="m 463.07943,181.16651 q 0,-5.10417 2.51562,-9.88021 2.51563,-4.77605 7.10938,-7.29167 4.63021,-2.51563 10.31772,-2.51563 8.78646,0 14.40104,5.72396 5.61459,5.6875 5.61459,14.40105 0,8.78646 -5.6875,14.58334 -5.65105,5.76042 -14.25522,5.76042 -5.32292,0 -10.17188,-2.40625 -4.8125,-2.40625 -7.32813,-7.03646 -2.51562,-4.66667 -2.51562,-11.33855 z m 10.5,0.54687 q 0,5.76042 2.73438,8.82293 2.73438,3.0625 6.74479,3.0625 4.01042,0 6.70834,-3.0625 2.73438,-3.06251 2.73438,-8.89584 0,-5.68751 -2.73438,-8.75001 -2.69792,-3.0625 -6.70834,-3.0625 -4.01041,0 -6.74479,3.0625 -2.73438,3.0625 -2.73438,8.82292 z"
         style="font-weight:bold;-inkscape-font-specification:'Arial Bold'"
         id="path419" />
    </g>
    <text
       xml:space="preserve"
       style="font-style:normal;font-variant:normal;font-weight:bold;font-stretch:normal;font-size:19.7556px;font-family:Arial;-inkscape-font-specification:'Arial Bold';fill:#b92323;fill-opacity:1;stroke-width:0"
       x="256.77161"
       y="13.317189"
       id="text2213"><tspan
         sodipodi:role="line"
         id="tspan2211"
         style="stroke-width:0"
         x="256.77161"
         y="13.317189" /></text>
  </g>
</svg>
