<?xml version="1.0" encoding="UTF-8" standalone="no"?>
<svg
   sodipodi:docname="google-play-feature-graphics.svg"
   inkscape:version="1.2.1 (9c6d41e, 2022-07-14)"
   id="svg1475"
   version="1.1"
   viewBox="0 0 1024 500"
   height="500mm"
   width="1024mm"
   inkscape:export-filename="google-play-greature-graphic.png"
   inkscape:export-xdpi="25.4"
   inkscape:export-ydpi="25.4"
   xmlns:inkscape="http://www.inkscape.org/namespaces/inkscape"
   xmlns:sodipodi="http://sodipodi.sourceforge.net/DTD/sodipodi-0.dtd"
   xmlns="http://www.w3.org/2000/svg"
   xmlns:svg="http://www.w3.org/2000/svg"
   xmlns:rdf="http://www.w3.org/1999/02/22-rdf-syntax-ns#"
   xmlns:cc="http://creativecommons.org/ns#"
   xmlns:dc="http://purl.org/dc/elements/1.1/">
  <defs
     id="defs1469">
    <rect
       x="12.656045"
       y="36.16013"
       width="578.56207"
       height="343.52124"
       id="rect24427" />
    <rect
       x="30.736111"
       y="37.968136"
       width="506.24182"
       height="175.37663"
       id="rect24421" />
    <rect
       x="391.35953"
       y="14.615086"
       width="678.78955"
       height="457.93936"
       id="rect49774" />
    <rect
       x="67.598274"
       y="51.099167"
       width="306.16714"
       height="53.715561"
       id="rect2754" />
    <rect
       id="rect3953"
       height="52.462029"
       width="94.885414"
       y="13.447483"
       x="65.976715" />
    <rect
       id="rect3953-2"
       height="65.527328"
       width="220.95096"
       y="13.447483"
       x="65.976715" />
    <rect
       id="rect3953-0"
       height="93.880669"
       width="156.53288"
       y="13.447483"
       x="65.976715" />
    <rect
       id="rect3953-0-0"
       height="58.270321"
       width="267.63519"
       y="13.447483"
       x="65.976715" />
    <rect
       x="391.35953"
       y="14.615086"
       width="678.78955"
       height="457.93936"
       id="rect49774-6" />
    <rect
       x="391.35953"
       y="14.615086"
       width="678.78955"
       height="457.93936"
       id="rect49774-6-2" />
    <rect
       x="391.35953"
       y="14.615086"
       width="678.78955"
       height="457.93936"
       id="rect49774-3" />
    <rect
       x="12.656045"
       y="36.16013"
       width="1013.6974"
       height="382.73848"
       id="rect24427-9" />
    <rect
       x="12.656045"
       y="36.16013"
       width="578.56207"
       height="343.52124"
       id="rect24427-4" />
  </defs>
  <sodipodi:namedview
     inkscape:window-maximized="0"
     inkscape:window-y="25"
     inkscape:window-x="0"
     inkscape:window-height="1318"
     inkscape:window-width="2006"
     showgrid="false"
     inkscape:document-rotation="0"
     inkscape:current-layer="layer1"
     inkscape:document-units="mm"
     inkscape:cy="1354.6623"
     inkscape:cx="1842.1355"
     inkscape:zoom="0.29232377"
     inkscape:pageshadow="2"
     inkscape:pageopacity="1"
     borderopacity="1.0"
     bordercolor="#666666"
     pagecolor="#ffffff"
     id="base"
     inkscape:showpageshadow="2"
     inkscape:pagecheckerboard="0"
     inkscape:deskcolor="#d1d1d1" />
  <metadata
     id="metadata1472">
    <rdf:RDF>
      <cc:Work
         rdf:about="">
        <dc:format>image/svg+xml</dc:format>
        <dc:type
           rdf:resource="http://purl.org/dc/dcmitype/StillImage" />
      </cc:Work>
    </rdf:RDF>
  </metadata>
  <g
     id="layer1"
     inkscape:groupmode="layer"
     inkscape:label="Layer 1">
    <path
       sodipodi:nodetypes="asczsszsszszsssssa"
       id="path10-9-0-7"
       d="M 135.93115,367.88113 C 103.55659,346.56556 110.0771,298.2548 109.19153,254.71241 c -0.88548,-43.54239 -1.50284,-106.28746 17.22705,-118.16468 38.49148,-20.17421 53.9448,16.37092 83.29391,16.89756 29.34917,0.52662 57.42082,-34.63991 88.26914,-16.14891 14.47775,8.67821 7.44741,38.14675 17.98762,52.60006 8.06181,11.05474 56.04304,8.21032 63.61305,-3.74095 7.57014,-11.95128 0,-65.52082 -9.39896,-83.61572 C 355.93236,75.091191 317.46137,49.873493 277.17272,63.487729 253.8886,71.355882 230.31015,89.613755 210.79871,89.254669 191.28721,88.895572 175.88979,69.75573 147.01206,62.388722 99.24104,50.201867 72.323859,65.555931 58.583745,94.527141 44.843703,123.49836 39.960337,215.28776 42.713282,275.92084 44.994454,326.16286 39.961017,382.58318 89.241738,414.88388 172.70487,469.5892 377.8385,457.48335 377.14282,332.77569 376.46988,212.1524 138.60197,225.99323 149.86069,276.04037 c 11.27161,50.10439 151.66628,-11.32231 156.76069,61.79366 3.61211,51.8406 -122.43819,61.81651 -170.69023,30.0471 z"
       style="mix-blend-mode:normal;fill:#b92323;fill-opacity:1;stroke:#b92323;stroke-width:1.20648px;stroke-linecap:butt;stroke-linejoin:miter;stroke-opacity:1" />
    <text
       xml:space="preserve"
       transform="matrix(1.113089,0,0,1.113089,330.31398,27.018519)"
       id="text24425"
       style="font-size:85.3333px;font-family:Arial;-inkscape-font-specification:Arial;text-align:end;white-space:pre;shape-inside:url(#rect24427);display:inline;fill:#b92323;fill-opacity:1;stroke:#b92323;stroke-opacity:1"><tspan
         x="97.843956"
         y="113.0245"
         id="tspan940">mathe:buddy
</tspan></text>
    <text
       xml:space="preserve"
       transform="matrix(0.93052644,0,0,0.93052644,28.175717,194.06644)"
       id="text24425-4"
       style="font-size:57.8462px;font-family:Arial;-inkscape-font-specification:Arial;text-align:end;white-space:pre;shape-inside:url(#rect24427-9);display:inline;fill:#1a1a1a;fill-opacity:1;stroke:#1a1a1a;stroke-opacity:1"><tspan
         x="592.33755"
         y="88.265376"
         id="tspan944">eine <tspan
   style="fill:#b92323;stroke:#b92323"
   id="tspan942">G</tspan>amifizierte
</tspan><tspan
         x="611.5443"
         y="160.57312"
         id="tspan946">Lern-App für die
</tspan><tspan
         x="521.58329"
         y="232.88087"
         id="tspan948">Höhere Mathematik</tspan></text>
  </g>
</svg>
