<?xml version="1.0" encoding="UTF-8" standalone="no"?>
<svg
   sodipodi:docname="logo-large-colors-2.svg"
   inkscape:version="1.2.1 (9c6d41e, 2022-07-14)"
   id="svg1475"
   version="1.1"
   viewBox="0 0 200 64"
   height="64mm"
   width="200mm"
   inkscape:export-filename="../../../../../Downloads/yyy.png"
   inkscape:export-xdpi="635"
   inkscape:export-ydpi="635"
   xmlns:inkscape="http://www.inkscape.org/namespaces/inkscape"
   xmlns:sodipodi="http://sodipodi.sourceforge.net/DTD/sodipodi-0.dtd"
   xmlns="http://www.w3.org/2000/svg"
   xmlns:svg="http://www.w3.org/2000/svg"
   xmlns:rdf="http://www.w3.org/1999/02/22-rdf-syntax-ns#"
   xmlns:cc="http://creativecommons.org/ns#"
   xmlns:dc="http://purl.org/dc/elements/1.1/">
  <defs
     id="defs1469">
    <rect
       x="12.656045"
       y="36.16013"
       width="578.56207"
       height="343.52124"
       id="rect24427" />
    <rect
       x="30.736111"
       y="37.968136"
       width="506.24182"
       height="175.37663"
       id="rect24421" />
    <rect
       x="391.35953"
       y="14.615086"
       width="678.78955"
       height="457.93936"
       id="rect49774" />
    <rect
       x="67.598274"
       y="51.099167"
       width="306.16714"
       height="53.715561"
       id="rect2754" />
    <rect
       id="rect3953"
       height="52.462029"
       width="94.885414"
       y="13.447483"
       x="65.976715" />
    <rect
       id="rect3953-2"
       height="65.527328"
       width="220.95096"
       y="13.447483"
       x="65.976715" />
    <rect
       id="rect3953-0"
       height="93.880669"
       width="156.53288"
       y="13.447483"
       x="65.976715" />
    <rect
       id="rect3953-0-0"
       height="58.270321"
       width="267.63519"
       y="13.447483"
       x="65.976715" />
    <rect
       x="391.35953"
       y="14.615086"
       width="678.78955"
       height="457.93936"
       id="rect49774-6" />
    <rect
       x="391.35953"
       y="14.615086"
       width="678.78955"
       height="457.93936"
       id="rect49774-6-2" />
    <rect
       x="391.35953"
       y="14.615086"
       width="678.78955"
       height="457.93936"
       id="rect49774-3" />
    <rect
       x="12.656045"
       y="36.16013"
       width="1021.4788"
       height="222.24641"
       id="rect24427-9" />
    <rect
       x="12.656045"
       y="36.16013"
       width="578.56207"
       height="343.52124"
       id="rect24427-4" />
  </defs>
  <sodipodi:namedview
     inkscape:window-maximized="1"
     inkscape:window-y="25"
     inkscape:window-x="0"
     inkscape:window-height="802"
     inkscape:window-width="1440"
     showgrid="false"
     inkscape:document-rotation="0"
     inkscape:current-layer="layer1"
     inkscape:document-units="mm"
     inkscape:cy="143.21494"
     inkscape:cx="352.85523"
     inkscape:zoom="1.0613418"
     inkscape:pageshadow="2"
     inkscape:pageopacity="0.0"
     borderopacity="1.0"
     bordercolor="#666666"
     pagecolor="#ffffff"
     id="base"
     inkscape:showpageshadow="2"
     inkscape:pagecheckerboard="0"
     inkscape:deskcolor="#d1d1d1" />
  <metadata
     id="metadata1472">
    <rdf:RDF>
      <cc:Work
         rdf:about="">
        <dc:format>image/svg+xml</dc:format>
        <dc:type
           rdf:resource="http://purl.org/dc/dcmitype/StillImage" />
      </cc:Work>
    </rdf:RDF>
  </metadata>
  <g
     id="layer1"
     inkscape:groupmode="layer"
     inkscape:label="Layer 1">
    <path
       sodipodi:nodetypes="asczsszsszszsssssa"
       id="path4837"
       d="m 160.88428,47.804268 c -4.34461,-2.860513 -3.46957,-9.343737 -3.58841,-15.187052 -0.11883,-5.843315 -0.20168,-14.263595 2.31184,-15.857497 5.16549,-2.707346 7.2393,2.19695 11.1779,2.267624 3.93861,0.07067 7.70578,-4.648618 11.84557,-2.167158 1.94289,1.164603 0.99943,5.119228 2.41391,7.058838 1.08188,1.483527 7.52088,1.101809 8.53677,-0.50203 1.01589,-1.60384 -5.6e-4,-8.79278 -1.26133,-11.221084 -1.91246,-3.6835575 -7.0752,-7.0677295 -12.48187,-5.2407215 -3.12469,1.055892 -6.28888,3.5060675 -8.90728,3.4578795 -2.61841,-0.04819 -4.68472,-2.6167255 -8.56006,-3.6053645 -6.41079,-1.635456 -10.02303,0.425033 -11.86693,4.3129215 -1.84389,3.88789 -2.49923,16.20587 -2.12979,24.342727 0.30613,6.742396 -0.36935,14.313906 6.24404,18.648607 11.20061,7.34136 38.7292,5.716777 38.63584,-11.01878 -0.0903,-16.187445 -32.01178,-14.330028 -30.50088,-7.613786 1.51263,6.723925 20.35336,-1.519435 21.03702,8.292606 0.48474,6.956922 -16.431,8.295671 -22.90634,4.03227 z"
       style="mix-blend-mode:normal;fill:#862585;fill-opacity:1;stroke:#862585;stroke-width:0.161908px;stroke-linecap:butt;stroke-linejoin:miter;stroke-opacity:1" />
    <text
       xml:space="preserve"
       transform="matrix(0.26458333,0,0,0.26458333,-19.132083,-1.5494924)"
       id="text24425"
       style="font-size:85.3333px;font-family:Arial;-inkscape-font-specification:Arial;text-align:end;white-space:pre;shape-inside:url(#rect24427);display:inline;fill:#000000;fill-opacity:1;stroke:#000000;stroke-opacity:1"><tspan
         x="97.843956"
         y="113.0245"
         id="tspan14336">mathe:buddy
</tspan></text>
    <text
       xml:space="preserve"
       transform="matrix(0.12197097,0,0,0.12197097,8.6807253,32.113254)"
       id="text24425-4"
       style="font-size:57.8462px;font-family:Arial;-inkscape-font-specification:Arial;text-align:end;white-space:pre;shape-inside:url(#rect24427-9);display:inline;fill:#1a1a1a;fill-opacity:1;stroke:#1a1a1a;stroke-opacity:1"><tspan
         x="497.13675"
         y="88.265376"
         id="tspan14338">eine gamifizierte App
</tspan><tspan
         x="362.12463"
         y="160.57312"
         id="tspan14340">für die höhere Mathematik</tspan></text>
    <path
       id="path4865"
       style="mix-blend-mode:normal;fill:#ea5b0c;fill-opacity:1;stroke:#ea5b0c;stroke-width:0.161908px;stroke-linecap:butt;stroke-linejoin:miter;stroke-opacity:1"
       d="m 158.07194,6.2450968 c -3.80693,0.071799 -6.18458,1.959758 -7.5675,4.8756712 -1.84389,3.887886 -2.49903,16.205852 -2.12959,24.3427 0.30613,6.74239 -0.36983,14.313778 6.24355,18.648475 2.71987,1.78272 6.40385,3.0348 10.42004,3.672127 l -1.17719,-8.607744 c -1.12649,-0.363945 -2.13963,-0.820622 -2.97708,-1.372009 -4.34461,-2.86051 -3.46957,-9.343877 -3.58841,-15.187186 -0.11883,-5.84331 -0.20152,-14.26353 2.312,-15.85743 5.16548,-2.707344 7.23902,2.196887 11.17761,2.267561 3.93861,0.07067 7.706,-4.648767 11.84579,-2.167309 1.94289,1.164602 0.99933,5.119392 2.41381,7.059 1.08187,1.483526 7.52105,1.10206 8.53694,-0.501778 1.01589,-1.603838 -6.5e-4,-8.792719 -1.26142,-11.22102 -1.91246,-3.683554 -7.07526,-7.0680302 -12.48192,-5.241024 -3.12469,1.055891 -6.28856,3.506375 -8.90695,3.458187 -2.61841,-0.04819 -4.68487,-2.6168268 -8.56021,-3.6054648 -1.60269,-0.4088636 -3.0305,-0.5866894 -4.29947,-0.5627564 z" />
    <path
       id="path10-9-0-7"
       style="mix-blend-mode:normal;fill:#c90c0f;fill-opacity:1;stroke:#c90c0f;stroke-width:0.161908px;stroke-linecap:butt;stroke-linejoin:miter;stroke-opacity:1"
       d="m 158.07201,6.2450968 c -3.80693,0.071799 -6.18458,1.959758 -7.5675,4.8756712 -1.32133,2.786055 -2.02913,9.899071 -2.19005,16.70234 h 8.94002 c 0.0481,-4.884112 0.47787,-9.874106 2.35335,-11.063407 5.16548,-2.707344 7.23902,2.196887 11.17761,2.267561 3.93861,0.07067 7.706,-4.648767 11.84579,-2.167309 1.94289,1.164602 0.99933,5.119392 2.41381,7.059 1.08187,1.483526 7.52105,1.10206 8.53694,-0.501778 1.01589,-1.603838 -6.5e-4,-8.792719 -1.26142,-11.22102 -1.91246,-3.683554 -7.07526,-7.0680302 -12.48192,-5.241024 -3.12469,1.055891 -6.28907,3.506375 -8.90747,3.458187 -2.61841,-0.04819 -4.68435,-2.6168268 -8.55969,-3.6054648 -1.60269,-0.4088636 -3.0305,-0.5866894 -4.29947,-0.5627564 z" />
  </g>
</svg>
