<?xml version="1.0" standalone="no"?>
<!DOCTYPE svg PUBLIC "-//W3C//DTD SVG 20010904//EN"
 "http://www.w3.org/TR/2001/REC-SVG-20010904/DTD/svg10.dtd">
<svg version="1.0" xmlns="http://www.w3.org/2000/svg"
 width="1024.000000pt" height="1024.000000pt" viewBox="0 0 1024.000000 1024.000000"
 preserveAspectRatio="xMidYMid meet">
<metadata>
Created by potrace 1.14, written by Peter Selinger 2001-2017
</metadata>
<g transform="translate(0.000000,1024.000000) scale(0.100000,-0.100000)"
fill="#000000" stroke="none">
<path d="M2689 9896 c-2 -2 -35 -6 -74 -9 -99 -8 -255 -41 -358 -77 -255 -88
-421 -201 -623 -422 -83 -91 -219 -315 -279 -461 -60 -147 -152 -497 -179
-682 -3 -22 -8 -51 -10 -65 -9 -49 -35 -216 -41 -260 -3 -25 -8 -56 -10 -70
-2 -14 -6 -50 -10 -80 -3 -30 -8 -66 -10 -80 -2 -14 -7 -54 -10 -90 -4 -36 -8
-76 -10 -90 -2 -14 -6 -59 -10 -100 -3 -41 -8 -91 -10 -110 -2 -19 -7 -73 -11
-120 -4 -47 -8 -101 -10 -120 -1 -19 -5 -80 -9 -135 -3 -55 -8 -122 -10 -150
-3 -48 -14 -237 -20 -355 -20 -397 -26 -1402 -11 -1785 12 -278 13 -309 21
-580 11 -380 21 -622 31 -725 2 -25 6 -81 9 -125 3 -44 8 -89 9 -100 2 -11 7
-49 11 -85 9 -88 41 -283 66 -405 85 -411 259 -795 487 -1080 73 -91 227 -244
322 -321 352 -286 901 -542 1485 -694 66 -17 127 -33 135 -35 46 -13 457 -94
506 -100 32 -3 61 -8 64 -10 3 -2 30 -6 60 -9 30 -3 64 -8 75 -10 12 -2 50 -7
86 -10 36 -4 76 -8 90 -10 24 -4 146 -15 244 -22 321 -22 763 -22 1055 0 428
33 898 115 1245 216 178 53 361 114 432 146 17 8 34 14 38 14 4 0 21 6 38 14
18 8 61 27 97 42 92 40 372 183 391 200 8 8 19 14 23 14 12 0 205 128 294 196
425 323 696 687 860 1159 81 231 121 504 117 800 -5 340 -62 583 -204 865
-263 522 -805 931 -1566 1184 -113 38 -255 79 -345 101 -51 12 -118 27 -135
31 -11 2 -42 8 -70 14 -62 13 -84 17 -126 24 -19 3 -45 8 -59 10 -36 7 -100
16 -140 22 -89 11 -117 15 -140 19 -14 2 -63 7 -110 11 -47 3 -93 8 -103 10
-34 6 -331 17 -482 17 -142 1 -402 -9 -490 -18 -22 -2 -69 -7 -105 -10 -36 -3
-112 -13 -170 -22 -58 -8 -114 -16 -125 -18 -65 -8 -227 -42 -335 -70 -107
-27 -234 -65 -252 -75 -10 -6 -23 -10 -28 -10 -34 0 -365 -161 -390 -189 -3
-4 -22 -19 -42 -34 -253 -188 -300 -448 -125 -687 46 -62 61 -77 132 -129 76
-57 227 -123 333 -146 137 -30 139 -31 252 -44 52 -7 109 -14 125 -16 74 -10
425 -17 955 -20 316 -2 602 -6 635 -8 33 -3 89 -8 125 -11 82 -8 192 -23 293
-42 497 -91 786 -311 886 -674 55 -197 47 -408 -20 -558 -55 -121 -176 -264
-303 -357 -33 -25 -66 -50 -73 -55 -7 -6 -14 -10 -17 -10 -2 0 -33 -17 -67
-38 -80 -47 -214 -109 -343 -156 -93 -35 -317 -100 -381 -112 -16 -3 -59 -11
-95 -19 -105 -23 -267 -48 -390 -61 -30 -3 -66 -7 -80 -9 -56 -10 -309 -19
-495 -19 -229 0 -386 8 -560 29 -22 2 -62 7 -90 10 -49 6 -78 10 -122 19 -11
3 -43 8 -70 12 -55 8 -54 7 -152 28 -164 36 -419 109 -488 141 -17 8 -34 15
-37 15 -15 0 -230 104 -310 149 -127 72 -283 214 -372 338 -139 193 -250 491
-289 778 -2 11 -8 56 -14 100 -6 44 -14 112 -17 150 -3 39 -8 93 -10 120 -13
129 -21 2343 -10 2630 7 199 9 228 21 360 17 188 26 278 30 305 2 14 7 45 10
70 3 25 8 56 10 70 3 14 7 41 10 60 52 318 155 579 276 698 77 76 313 168 484
188 93 11 208 7 285 -9 8 -2 31 -7 50 -11 126 -28 304 -112 560 -266 85 -51
191 -110 235 -132 44 -21 88 -43 97 -48 18 -10 124 -49 148 -55 198 -47 337
-50 500 -10 182 44 265 77 650 255 143 66 266 120 273 120 7 0 17 4 22 9 15
15 211 77 300 96 228 49 471 12 657 -98 129 -77 206 -212 244 -427 13 -74 23
-140 28 -185 6 -48 13 -103 21 -155 3 -14 9 -54 14 -90 17 -108 22 -131 48
-219 29 -101 83 -209 127 -252 54 -53 179 -106 296 -125 14 -2 34 -6 45 -9
102 -22 486 -23 602 -1 10 2 41 7 68 10 75 10 249 54 324 82 119 45 213 112
246 175 74 140 90 529 39 929 -18 145 -25 191 -39 275 -3 17 -8 46 -11 65 -23
150 -95 445 -145 591 -128 383 -444 751 -851 993 -221 132 -493 228 -738 262
-71 10 -400 11 -465 2 -99 -15 -171 -30 -250 -53 -229 -68 -317 -107 -782
-338 -138 -69 -285 -140 -325 -157 -40 -18 -86 -38 -103 -46 -72 -33 -250 -88
-350 -109 -63 -13 -222 -13 -290 0 -127 24 -302 96 -475 195 -30 18 -116 67
-190 109 -316 183 -505 267 -750 336 -132 37 -327 76 -455 91 -33 3 -69 9 -80
11 -24 5 -391 13 -396 9z"/>
</g>
</svg>
