<?xml version="1.0" encoding="UTF-8" standalone="no"?>
<svg
   id="Ebene_1"
   data-name="Ebene 1"
   viewBox="0 0 399.99999 60"
   version="1.1"
   sodipodi:docname="logo-institutes.svg"
   width="400"
   height="60"
   inkscape:version="1.2.1 (9c6d41e, 2022-07-14)"
   inkscape:export-filename="logo-institutes.png"
   inkscape:export-xdpi="245.75999"
   inkscape:export-ydpi="245.75999"
   xmlns:inkscape="http://www.inkscape.org/namespaces/inkscape"
   xmlns:sodipodi="http://sodipodi.sourceforge.net/DTD/sodipodi-0.dtd"
   xmlns:xlink="http://www.w3.org/1999/xlink"
   xmlns="http://www.w3.org/2000/svg"
   xmlns:svg="http://www.w3.org/2000/svg"
   xmlns:rdf="http://www.w3.org/1999/02/22-rdf-syntax-ns#"
   xmlns:cc="http://creativecommons.org/ns#"
   xmlns:dc="http://purl.org/dc/elements/1.1/">
  <sodipodi:namedview
     id="namedview195"
     pagecolor="#ffffff"
     bordercolor="#000000"
     borderopacity="0.25"
     inkscape:showpageshadow="2"
     inkscape:pageopacity="1"
     inkscape:pagecheckerboard="true"
     inkscape:deskcolor="#d1d1d1"
     showgrid="false"
     inkscape:zoom="1.2578993"
     inkscape:cx="216.63101"
     inkscape:cy="37.761369"
     inkscape:window-width="1470"
     inkscape:window-height="625"
     inkscape:window-x="0"
     inkscape:window-y="521"
     inkscape:window-maximized="0"
     inkscape:current-layer="Ebene_1" />
  <defs
     id="defs134">
    <rect
       x="105.73184"
       y="-3.1799047"
       width="283.01154"
       height="127.19619"
       id="rect828" />
    <style
       id="style132">.cls-1{fill:#c60c0f;}.cls-2{fill:#ea5b0c;}.cls-3{fill:#b62584;}</style>
    <clipPath
       id="SVGID_00000023981820493180216610000005852466278092602283_">
      <use
         xlink:href="#SVGID_1_"
         style="overflow:visible"
         id="use579" />
    </clipPath>
    <rect
       id="SVGID_1_"
       x="53.700001"
       y="53.700001"
       width="460.79999"
       height="141.7" />
    <rect
       x="105.73184"
       y="-3.1799047"
       width="325.14529"
       height="57.238289"
       id="rect828-6" />
    <rect
       x="105.73184"
       y="-3.1799047"
       width="480.96063"
       height="90.627289"
       id="rect828-6-3" />
  </defs>
  <title
     id="title136">Logo TH Köln RGB_22pt</title>
  <metadata
     id="metadata518">
    <rdf:RDF>
      <cc:Work
         rdf:about="">
        <dc:title>Logo TH Köln RGB_22pt</dc:title>
      </cc:Work>
    </rdf:RDF>
  </metadata>
  <g
     id="g586"
     transform="matrix(0.2267847,0,0,0.2267847,1.02272,10.314209)">
    <g
       id="g584">
      <defs
         id="defs577">
        <rect
           id="rect758"
           x="53.700001"
           y="53.700001"
           width="460.79999"
           height="141.7" />
      </defs>
      <clipPath
         id="clipPath724">
        <use
           xlink:href="#SVGID_1_"
           style="overflow:visible"
           id="use722" />
      </clipPath>
      <path
         d="m 464.6,146.7 h -3.9 V 167 h 4.3 v -10.9 c 0,-2 0.4,-3.5 1.1,-4.5 0.7,-1 1.8,-1.5 3.3,-1.5 h 2.3 v -3.7 c -0.6,-0.1 -1.2,-0.1 -1.9,-0.1 -2,0 -3.5,0.9 -4.7,2.6 z M 357,138.8 h -4.3 V 167 h 4.3 v -11 c 0,-4 1.5,-5.9 4.5,-5.9 1.6,0 2.8,0.5 3.5,1.4 0.7,0.9 1.1,2.4 1.1,4.5 v 11 h 4.3 v -11 c 0,-3.3 -0.6,-5.7 -1.9,-7.2 -1.3,-1.6 -3.3,-2.4 -6.1,-2.4 -1.2,0 -2.3,0.3 -3.2,0.8 -0.9,0.5 -1.7,1.1 -2.2,1.8 z m -0.2,-31.2 h -4.3 v 20.2 h 4.3 z m 0.2,-8 h -4.9 v 4.8 h 4.9 z m -24,49.6 c -1.7,1.9 -2.6,4.5 -2.6,7.6 0,3.2 0.9,5.7 2.6,7.6 1.7,1.9 4.1,2.9 7,2.9 1.3,0 2.4,-0.2 3.5,-0.6 1.1,-0.4 1.9,-0.9 2.7,-1.6 0.7,-0.7 1.3,-1.4 1.7,-2.2 0.4,-0.8 0.8,-1.6 0.9,-2.5 -2.2,-0.4 -3.6,-0.7 -4.3,-0.8 -0.3,1.2 -0.9,2.2 -1.6,2.9 -0.8,0.7 -1.7,1 -2.9,1 -1.7,0 -3,-0.6 -3.9,-1.9 -0.9,-1.2 -1.4,-2.9 -1.4,-5 0,-2.1 0.5,-3.7 1.4,-5 0.9,-1.2 2.2,-1.8 3.9,-1.8 1.1,0 2,0.3 2.8,1 0.8,0.7 1.3,1.6 1.7,2.9 0.2,0 1.7,-0.3 4.3,-0.8 -0.2,-0.7 -0.4,-1.4 -0.7,-2 -0.3,-0.6 -0.7,-1.2 -1.2,-1.8 -0.5,-0.6 -1.1,-1.1 -1.7,-1.5 -0.6,-0.4 -1.4,-0.8 -2.3,-1 -0.9,-0.3 -1.8,-0.4 -2.9,-0.4 -3,0.1 -5.3,1.1 -7,3 m -18.7,11 c 0,0 -1.4,0.3 -4.2,0.8 0.3,1.9 1.2,3.5 2.7,4.6 1.5,1.2 3.5,1.8 6,1.8 2.5,0 4.6,-0.6 6.2,-1.7 1.6,-1.1 2.4,-2.7 2.4,-4.8 0,-0.9 -0.2,-1.7 -0.5,-2.4 -0.3,-0.7 -0.7,-1.2 -1.2,-1.7 -0.5,-0.4 -1.1,-0.8 -1.9,-1.1 -0.8,-0.3 -1.5,-0.5 -2.3,-0.6 -0.7,-0.1 -1.6,-0.3 -2.6,-0.4 -1.3,-0.1 -2.3,-0.4 -3,-0.7 -0.6,-0.3 -1,-0.9 -1,-1.6 0,-0.6 0.3,-1.2 1,-1.6 0.7,-0.5 1.5,-0.7 2.6,-0.7 2.6,0 4,1.1 4.2,3.4 2.4,-0.5 3.8,-0.7 4.3,-0.8 -0.1,-1.1 -0.5,-2.1 -1,-2.9 -0.5,-0.8 -1.2,-1.5 -1.9,-2 -0.8,-0.5 -1.7,-0.9 -2.6,-1.1 -0.9,-0.2 -2,-0.4 -3.1,-0.4 -2.2,0 -4,0.6 -5.5,1.7 -1.5,1.2 -2.2,2.6 -2.2,4.3 0,0.9 0.1,1.7 0.4,2.4 0.3,0.7 0.7,1.2 1.1,1.6 0.5,0.4 1,0.7 1.7,1 0.6,0.3 1.3,0.4 2,0.5 0.7,0.1 1.4,0.2 2.1,0.3 0.7,0.1 1.3,0.2 2,0.3 0.6,0.1 1.2,0.2 1.7,0.4 0.5,0.2 0.9,0.4 1.1,0.8 0.3,0.3 0.4,0.8 0.4,1.3 0,0.6 -0.2,1.1 -0.5,1.5 -0.4,0.4 -0.8,0.7 -1.3,0.9 -0.5,0.2 -1,0.3 -1.4,0.3 -0.4,0.1 -0.7,0.1 -1,0.1 -2.8,0 -4.3,-1.2 -4.7,-3.5 m -21.2,-21.4 h -4.3 V 167 h 4.3 v -11 c 0,-4 1.5,-5.9 4.5,-5.9 1.6,0 2.8,0.5 3.5,1.4 0.7,0.9 1.1,2.4 1.1,4.5 v 11 h 4.3 v -11 c 0,-3.3 -0.6,-5.7 -1.9,-7.2 -1.3,-1.6 -3.3,-2.4 -6.1,-2.4 -1.2,0 -2.3,0.3 -3.2,0.8 -0.9,0.5 -1.7,1.1 -2.2,1.8 z m -3.9,-21.1 c 0,2.2 -0.5,3.9 -1.4,5.1 -0.9,1.2 -2.2,1.8 -3.7,1.8 -1.6,0 -2.8,-0.6 -3.7,-1.8 -0.9,-1.2 -1.4,-2.9 -1.4,-5.1 0,-2.2 0.5,-3.8 1.4,-5 0.9,-1.2 2.2,-1.8 3.7,-1.8 1.6,0 2.8,0.6 3.7,1.8 0.9,1.1 1.4,2.8 1.4,5 m 1.8,7.6 c 1.7,-1.9 2.5,-4.5 2.5,-7.6 0,-3.1 -0.9,-5.7 -2.6,-7.6 -1.7,-1.9 -4,-2.9 -6.9,-2.9 -2.9,0 -5.2,1 -6.9,2.9 -1.7,1.9 -2.5,4.5 -2.5,7.6 0,3.2 0.8,5.7 2.5,7.6 1.7,1.9 4,2.9 6.9,2.9 3,0 5.3,-1 7,-2.9 m -22,23.9 c -1.7,1.9 -2.6,4.5 -2.6,7.6 0,3.2 0.9,5.7 2.6,7.6 1.7,1.9 4.1,2.9 7,2.9 1.3,0 2.4,-0.2 3.5,-0.6 1.1,-0.4 1.9,-0.9 2.7,-1.6 0.7,-0.7 1.3,-1.4 1.7,-2.2 0.4,-0.8 0.8,-1.6 0.9,-2.5 -2.2,-0.4 -3.6,-0.7 -4.3,-0.8 -0.3,1.2 -0.9,2.2 -1.7,2.9 -0.8,0.7 -1.7,1 -2.9,1 -1.7,0 -3,-0.6 -3.9,-1.9 -0.9,-1.3 -1.4,-2.9 -1.4,-5 0,-2.1 0.5,-3.7 1.4,-5 0.9,-1.2 2.2,-1.8 3.9,-1.8 1.1,0 2,0.3 2.8,1 0.8,0.7 1.3,1.6 1.7,2.9 0.2,0 1.7,-0.3 4.3,-0.8 -0.2,-0.7 -0.4,-1.4 -0.7,-2 -0.3,-0.6 -0.7,-1.2 -1.2,-1.8 -0.5,-0.6 -1.1,-1.1 -1.7,-1.5 -0.6,-0.4 -1.4,-0.8 -2.3,-1 -0.9,-0.3 -1.8,-0.4 -2.9,-0.4 -2.8,0.1 -5.1,1.1 -6.9,3 m -19.7,7.6 c 0,-2.2 0.5,-3.8 1.4,-5 0.9,-1.2 2.2,-1.8 3.7,-1.8 1.6,0 2.8,0.6 3.7,1.8 0.9,1.2 1.4,2.9 1.4,5 0,2.2 -0.5,3.9 -1.4,5.1 -0.9,1.2 -2.2,1.8 -3.7,1.8 -1.6,0 -2.8,-0.6 -3.7,-1.8 -1,-1.2 -1.4,-2.9 -1.4,-5.1 m -1.8,-7.6 c -1.7,1.9 -2.5,4.5 -2.5,7.6 0,3.2 0.8,5.7 2.5,7.6 1.7,1.9 4,2.9 6.9,2.9 2.9,0 5.2,-1 6.9,-2.9 1.7,-1.9 2.5,-4.5 2.5,-7.6 0,-3.1 -0.9,-5.7 -2.6,-7.6 -1.7,-1.9 -4,-2.9 -6.9,-2.9 -2.8,0 -5.1,1 -6.8,2.9 m -8.3,-38.4 c 1.6,0 2.8,0.5 3.5,1.4 0.7,1 1.1,2.5 1.1,4.5 v 11 h 4.3 v -11 c 0,-3.3 -0.6,-5.7 -1.9,-7.3 -1.2,-1.6 -3.3,-2.3 -6.2,-2.4 -1.2,0 -2.3,0.3 -3.3,0.8 -1,0.5 -1.7,1.1 -2.1,1.8 l -0.4,-2.2 h -3.9 v 20.2 h 4.3 v -11 c 0.1,-3.8 1.6,-5.8 4.6,-5.8 m -14.3,28 h -4.5 V 167 h 4.5 V 154.4 H 237 V 167 h 4.5 V 138.8 H 237 v 11.8 h -12.1 z m 0,-39.2 h -4.5 v 28.2 h 4.5 z m -114.4,49.1 -50.3,-22.4 62.8,-25.8 50.3,22.4 z m 2.1,41.1 v -5.5 l 62.8,-25.8 v 5.5 z m 62.9,-36 -62.8,25.8 v -6.1 l 62.8,-25.8 z m -0.1,-10.8 -62.8,25.8 v -6 l 62.8,-25.7 z m 0,-10.7 -62.8,25.7 v -5.6 l 62.8,-25.7 z m 0,-13.2 -50.2,-22.3 V 59.6 l 50.1,22.6 z M 120.8,59.4 v 5.5 L 58.2,90.6 V 85.1 Z M 58.2,95.3 120.9,69.6 v 6 l -62.7,25.7 z m 0,10.8 62.7,-25.7 v 6 l -62.7,25.7 z m 0,10.7 62.7,-25.7 v 5.6 l -62.7,25.7 z m -0.1,13.4 50.1,22.3 v 37.2 L 58.1,167.1 Z M 110.4,195.5 179.8,167 179.7,79.3 123,53.8 53.8,82.2 V 170 Z M 241.2,79.7 c 0,-0.9 -0.1,-1.8 -0.4,-2.5 -0.2,-0.8 -0.5,-1.4 -0.9,-1.9 -0.4,-0.5 -0.8,-1 -1.4,-1.4 -0.6,-0.4 -1.2,-0.8 -1.7,-1 -0.6,-0.3 -1.2,-0.5 -2,-0.7 -0.8,-0.2 -1.4,-0.3 -2,-0.4 -0.6,-0.1 -1.3,-0.2 -2,-0.3 -4.2,-0.5 -6.3,-1.8 -6.3,-4 0,-0.8 0.2,-1.4 0.5,-2 0.3,-0.6 0.8,-1 1.3,-1.4 0.6,-0.3 1.2,-0.6 1.8,-0.7 0.7,-0.2 1.4,-0.2 2.1,-0.2 0.7,0 1.4,0.1 2.1,0.3 0.7,0.2 1.3,0.5 1.8,0.9 0.6,0.4 1,0.9 1.4,1.6 0.4,0.7 0.6,1.5 0.7,2.3 l 4.3,-0.7 c -0.1,-1.3 -0.4,-2.4 -1,-3.5 -0.6,-1 -1.4,-1.9 -2.3,-2.6 -1,-0.7 -2.1,-1.2 -3.3,-1.6 -1.2,-0.4 -2.5,-0.6 -3.7,-0.6 -1,0 -1.9,0.1 -2.9,0.3 -0.9,0.2 -1.8,0.5 -2.7,0.9 -0.9,0.4 -1.7,1 -2.3,1.6 -0.7,0.6 -1.2,1.4 -1.6,2.3 -0.4,0.9 -0.6,1.9 -0.6,3 0,4.5 3.5,7.1 10.4,7.8 0.6,0 1.1,0.1 1.5,0.2 0.4,0.1 0.9,0.2 1.4,0.3 0.5,0.1 0.9,0.3 1.3,0.5 0.4,0.2 0.7,0.5 1,0.8 0.3,0.3 0.6,0.7 0.7,1.1 0.2,0.5 0.2,1 0.2,1.5 0,1.5 -0.6,2.6 -1.8,3.4 -1.2,0.8 -2.7,1.2 -4.4,1.2 -1.1,0 -2.2,-0.2 -3.1,-0.6 -0.9,-0.4 -1.6,-0.9 -2.1,-1.6 -0.5,-0.6 -0.9,-1.3 -1.2,-2 -0.3,-0.7 -0.4,-1.4 -0.4,-2.1 l -4.5,0.8 c 0,0.9 0.2,1.7 0.4,2.6 0.3,0.8 0.7,1.7 1.3,2.5 0.6,0.8 1.3,1.5 2.1,2.2 0.8,0.6 1.9,1.1 3.2,1.5 1.3,0.4 2.7,0.6 4.2,0.6 3.2,0 5.8,-0.8 7.7,-2.3 2.2,-1.5 3.2,-3.6 3.2,-6.1 m 9.6,-8.9 h 4.2 v -3.2 h -4.2 v -5.9 h -4.3 v 5.9 H 243 v 3.2 h 3.5 V 82 c 0,2 0.4,3.5 1.1,4.5 0.8,1 2.1,1.5 3.9,1.5 h 0.5 l 2.6,-0.2 v -3.5 c -0.2,0 -0.6,0 -1,0 -0.4,0 -0.7,0 -0.9,0 -0.7,0 -1.2,-0.1 -1.5,-0.5 -0.3,-0.3 -0.4,-0.8 -0.4,-1.7 z m 12,36.4 c -1.2,0 -2.3,0.3 -3.3,0.8 -1,0.5 -1.7,1.1 -2.1,1.8 l -0.4,-2.2 h -3.9 v 20.2 h 4.3 v -11 c 0,-4 1.5,-6 4.5,-6 1.6,0 2.7,0.5 3.5,1.4 0.7,1 1.1,2.5 1.1,4.5 v 11 h 4.3 v -11 c 0,-3.3 -0.6,-5.7 -1.9,-7.3 -1.2,-1.4 -3.2,-2.2 -6.1,-2.2 m -2.9,-19.4 h 4.3 V 67.5 h -4.3 z m -0.2,-23.3 h 4.9 v -4.8 h -4.9 z m 18.2,-1.2 h 2.4 v -3.7 h -3 c -3.7,0 -5.6,1.8 -5.6,5.5 v 2.5 h -3.5 v 3.2 h 3.5 v 17 h 4.3 v -17 h 3.8 V 67.6 H 276 v -2.2 c 0.2,-1.4 0.7,-2.1 1.9,-2.1 m 12.3,7.5 h 4.2 v -3.2 h -4.2 v -5.9 h -4.3 v 5.9 h -3.5 v 3.2 h 3.5 V 82 c 0,2 0.4,3.5 1.1,4.5 0.8,1 2.1,1.5 3.9,1.5 h 0.5 l 2.6,-0.2 v -3.5 c -0.2,0 -0.6,0 -1,0 -0.4,0 -0.7,0 -0.9,0 -0.7,0 -1.2,-0.1 -1.5,-0.5 -0.3,-0.3 -0.4,-0.8 -0.4,-1.7 z m 8.8,36.8 h -4.5 l 7.6,20.2 h 4.3 l 7.5,-20.2 h -4.5 l -5.2,15 z m 13.2,-19.8 h 3.9 V 67.5 h -4.3 v 11 c 0,2 -0.4,3.5 -1.1,4.5 -0.7,1 -1.9,1.5 -3.4,1.5 -1.6,0 -2.7,-0.5 -3.5,-1.4 -0.7,-0.9 -1.1,-2.4 -1.1,-4.5 v -11 h -4.3 v 11 c 0,3.3 0.6,5.7 1.8,7.3 1.2,1.6 3.2,2.3 6,2.3 1.3,0 2.4,-0.3 3.4,-0.8 1,-0.5 1.7,-1.1 2.1,-1.8 z m 16.5,31.2 v 1 c 0,1.2 -0.5,2.3 -1.5,3.2 -1,0.9 -2.3,1.4 -4,1.4 -1.2,0 -2.1,-0.3 -2.7,-0.8 -0.6,-0.5 -0.9,-1.2 -0.9,-2 0,-0.3 0.1,-0.6 0.2,-0.9 0.1,-0.3 0.3,-0.6 0.6,-0.9 0.3,-0.3 0.7,-0.6 1.3,-0.8 0.6,-0.2 1.3,-0.3 2.2,-0.3 h 4.8 z m -4.3,-11.8 c -1.5,0 -2.8,0.2 -4,0.7 -1.2,0.5 -2.2,1.2 -3,2.2 -0.8,1 -1.3,2.2 -1.4,3.7 0.5,0.1 1.2,0.2 2.2,0.4 1,0.2 1.7,0.3 2.1,0.4 0,-1.2 0.4,-2.1 1.1,-2.7 0.7,-0.6 1.7,-0.9 3,-0.9 0.7,0 1.3,0.1 1.9,0.2 0.5,0.2 1,0.4 1.3,0.6 0.3,0.2 0.6,0.5 0.8,0.9 0.2,0.3 0.3,0.7 0.4,1 0.1,0.3 0.1,0.6 0.1,1 v 1.2 h -5.2 c -2.5,0 -4.6,0.6 -6,1.8 -1.5,1.2 -2.2,2.6 -2.2,4.3 0,1.9 0.7,3.5 2,4.7 1.3,1.2 3.2,1.8 5.5,1.8 1.5,0 2.8,-0.4 3.9,-1 1.1,-0.6 1.9,-1.3 2.5,-2 0.2,0.9 0.5,1.6 1.1,2.1 0.6,0.5 1.4,0.8 2.4,0.8 0.9,0 1.7,-0.1 2.6,-0.3 v -3.5 c -0.3,0.1 -0.6,0.2 -1,0.2 -0.4,0 -0.7,-0.2 -0.9,-0.5 -0.2,-0.3 -0.2,-0.8 -0.2,-1.4 v -7 c 0,-2.8 -0.7,-4.8 -2.2,-6.2 -1.8,-1.8 -4,-2.5 -6.8,-2.5 M 335,87.8 h 4.3 v -11 c 0,-3.3 -0.6,-5.7 -1.9,-7.3 -1.2,-1.6 -3.3,-2.3 -6.2,-2.4 -1.2,0 -2.3,0.3 -3.3,0.8 -1,0.5 -1.7,1.1 -2.1,1.8 l -0.4,-2.2 h -3.9 v 20.2 h 4.3 v -11 c 0,-4 1.5,-6 4.5,-6 1.6,0 2.7,0.5 3.5,1.4 0.7,1 1.1,2.5 1.1,4.5 v 11.2 z m 4.3,13.9 v 5.9 h -3.5 v 3.2 h 3.5 V 122 c 0,2 0.4,3.5 1.1,4.5 0.8,1 2.1,1.5 3.9,1.5 h 0.5 l 2.6,-0.2 v -3.5 c -0.2,0 -0.6,0 -1,0 -0.4,0 -0.7,0 -0.9,0 -0.7,0 -1.2,-0.2 -1.5,-0.5 -0.3,-0.3 -0.4,-0.9 -0.4,-1.6 v -11.5 h 4.2 v -3.2 h -4.2 v -5.9 h -4.3 z m 18.4,-24.1 c 0,2.2 -0.4,3.9 -1.3,5.1 -0.9,1.2 -2.1,1.8 -3.7,1.8 -1.6,0 -2.9,-0.6 -3.8,-1.8 -0.9,-1.2 -1.4,-2.9 -1.4,-5.1 0,-2.2 0.5,-3.8 1.4,-5 0.9,-1.2 2.2,-1.8 3.8,-1.8 1.6,0 2.8,0.6 3.7,1.8 0.9,1.2 1.3,2.9 1.3,5 m 1.7,16.1 c 1.7,-1.6 2.6,-3.8 2.6,-6.8 V 67.5 h -4 l -0.4,2.6 c -0.4,-0.8 -1.1,-1.5 -2.2,-2.1 -1.1,-0.6 -2.2,-0.9 -3.5,-0.9 -2.6,0 -4.8,1 -6.4,2.9 -1.7,2 -2.5,4.5 -2.5,7.6 0,3.1 0.8,5.6 2.5,7.6 1.7,2 3.8,2.9 6.4,2.9 1.2,0 2.3,-0.3 3.4,-0.8 1.1,-0.5 1.9,-1.2 2.3,-2 v 1.5 c 0,1.7 -0.4,3 -1.3,4 -0.9,1 -2.1,1.5 -3.7,1.5 -1.1,0 -2.1,-0.3 -3,-0.8 -0.9,-0.5 -1.4,-1.2 -1.6,-2 l -4.2,1.2 c 0.4,1.7 1.4,3 3,3.9 1.6,0.9 3.5,1.4 5.8,1.4 2.8,0.1 5.1,-0.7 6.8,-2.3 m 16.4,24 c 0,2.2 -0.5,3.9 -1.4,5.1 -0.9,1.2 -2.2,1.8 -3.7,1.8 -1.6,0 -2.8,-0.6 -3.7,-1.8 -0.9,-1.2 -1.4,-2.9 -1.4,-5.1 0,-2.2 0.5,-3.8 1.4,-5 0.9,-1.2 2.2,-1.8 3.7,-1.8 1.6,0 2.8,0.6 3.7,1.8 1,1.1 1.4,2.8 1.4,5 m 1.8,7.6 c 1.7,-1.9 2.5,-4.5 2.5,-7.6 0,-3.1 -0.9,-5.7 -2.6,-7.6 -1.7,-1.9 -4,-2.9 -6.9,-2.9 -2.9,0 -5.2,1 -6.9,2.9 -1.7,1.9 -2.5,4.5 -2.5,7.6 0,3.2 0.8,5.7 2.5,7.6 1.7,1.9 4,2.9 6.9,2.9 3,0 5.3,-1 7,-2.9 m 5.9,38.4 c -1.6,0 -2.7,-0.5 -3.5,-1.4 -0.7,-0.9 -1.1,-2.4 -1.1,-4.5 v -11 h -4.3 v 11 c 0,3.3 0.6,5.7 1.8,7.3 1.2,1.6 3.2,2.3 6,2.3 1.3,0 2.4,-0.3 3.4,-0.8 1,-0.5 1.7,-1.1 2.1,-1.8 l 0.4,2.2 h 3.9 V 146.8 H 388 v 11 c 0,2 -0.4,3.5 -1.1,4.5 -0.8,0.9 -1.9,1.4 -3.4,1.4 m 14.3,-35.9 h 4.3 v -11 c 0,-3.3 -0.6,-5.7 -1.9,-7.3 -1.2,-1.6 -3.3,-2.3 -6.2,-2.4 -1.2,0 -2.3,0.3 -3.3,0.8 -1,0.5 -1.7,1.1 -2.1,1.8 l -0.4,-2.2 h -3.9 v 20.2 h 4.3 v -11 c 0,-4 1.5,-6 4.5,-6 1.6,0 2.7,0.5 3.5,1.4 0.7,1 1.1,2.5 1.1,4.5 v 11.2 z m 0,39.2 h 4.3 v -28.2 h -4.3 z m 9.7,0 h 4.3 v -28.2 h -4.3 z m 8.7,-62.5 h 4.9 v -4.8 h -4.9 z m 4.6,3.1 h -4.3 v 20.2 h 4.3 z m 8.8,47.3 h -9.2 c 0.1,-1.3 0.5,-2.5 1.3,-3.4 0.8,-1 1.9,-1.4 3.3,-1.4 1.4,0 2.5,0.4 3.3,1.3 0.8,0.8 1.2,2 1.3,3.5 m 2.1,-5.9 c -1.6,-1.8 -3.9,-2.7 -6.7,-2.7 -2.8,0 -5.1,1 -6.8,2.9 -1.7,1.9 -2.6,4.5 -2.6,7.6 0,3.1 0.9,5.6 2.7,7.6 1.8,1.9 4.1,2.9 6.8,2.9 1.3,0 2.5,-0.2 3.6,-0.6 1.1,-0.4 2,-0.9 2.7,-1.5 0.7,-0.6 1.3,-1.3 1.8,-2 0.5,-0.7 0.8,-1.5 1.1,-2.2 -2.3,-0.7 -3.7,-1.1 -4,-1.1 -0.5,1.3 -1.2,2.3 -2.1,2.9 -0.9,0.6 -2,0.9 -3.1,0.9 -1.4,0 -2.6,-0.5 -3.6,-1.6 -0.9,-1.1 -1.4,-2.4 -1.5,-3.9 h 13.9 c 0.1,-0.5 0.1,-1.1 0.1,-1.9 0.2,-3.1 -0.6,-5.5 -2.3,-7.3 m 8.3,-21.2 h 4.3 v -11 c 0,-3.3 -0.6,-5.7 -1.9,-7.3 -1.2,-1.6 -3.3,-2.3 -6.2,-2.4 -1.2,0 -2.3,0.3 -3.3,0.8 -1,0.5 -1.7,1.1 -2.1,1.8 l -0.4,-2.2 h -3.9 v 20.2 h 4.3 v -11 c 0,-4 1.5,-6 4.5,-6 1.6,0 2.7,0.5 3.5,1.4 0.7,1 1.1,2.5 1.1,4.5 v 11.2 z m 12,39.2 h 4.3 v -11 c 0,-3.3 -0.6,-5.7 -1.9,-7.2 -1.3,-1.6 -3.3,-2.4 -6.1,-2.4 -1.2,0 -2.3,0.3 -3.2,0.8 -0.9,0.5 -1.7,1.1 -2.2,1.8 v -10.1 h -4.3 V 167 h 4.3 v -11 c 0,-4 1.5,-5.9 4.5,-5.9 1.6,0 2.8,0.5 3.5,1.4 0.7,0.9 1.1,2.4 1.1,4.5 z m 19.8,-49.3 c 0,2.2 -0.4,3.9 -1.3,5.1 -0.9,1.2 -2.1,1.8 -3.7,1.8 -1.6,0 -2.9,-0.6 -3.8,-1.8 -0.9,-1.2 -1.4,-2.9 -1.4,-5 0,-2.2 0.5,-3.8 1.4,-5 0.9,-1.2 2.2,-1.8 3.8,-1.8 1.6,0 2.8,0.6 3.7,1.8 0.9,1 1.3,2.7 1.3,4.9 m 0.4,10.1 h 4 V 99.6 h -4.3 V 110 c -0.5,-0.7 -1.3,-1.3 -2.4,-1.9 -1.1,-0.6 -2.2,-0.9 -3.5,-0.9 -2.7,0 -4.8,1 -6.4,2.9 -1.6,1.9 -2.4,4.5 -2.4,7.6 0,3.1 0.8,5.6 2.5,7.6 1.6,2 3.7,2.9 6.3,2.9 1.3,0 2.5,-0.3 3.6,-0.9 1.1,-0.6 1.8,-1.3 2.3,-2 z m 7.5,23.7 c 0.8,-1 1.9,-1.4 3.3,-1.4 1.4,0 2.5,0.4 3.3,1.3 0.8,0.9 1.2,2.1 1.2,3.6 h -9.2 c 0.2,-1.4 0.6,-2.6 1.4,-3.5 m 3.3,-5.2 c -2.8,0 -5.1,1 -6.8,2.9 -1.7,1.9 -2.5,4.5 -2.5,7.6 0,3.1 0.9,5.6 2.7,7.6 1.8,1.9 4.1,2.9 6.8,2.9 1.3,0 2.5,-0.2 3.6,-0.6 1.1,-0.4 2,-0.9 2.7,-1.5 0.7,-0.6 1.3,-1.3 1.8,-2 0.5,-0.7 0.8,-1.5 1.1,-2.2 -2.3,-0.7 -3.7,-1.1 -4,-1.1 -0.5,1.3 -1.2,2.3 -2.1,2.9 -0.9,0.6 -2,0.9 -3.1,0.9 -1.4,0 -2.6,-0.5 -3.6,-1.6 -0.9,-1.1 -1.4,-2.4 -1.5,-3.9 H 492 c 0.1,-0.5 0.1,-1.1 0.1,-1.9 0,-3 -0.8,-5.5 -2.5,-7.2 -1.5,-1.9 -3.8,-2.8 -6.6,-2.8 m 2.1,-30.6 c 0.1,-1.3 0.5,-2.5 1.3,-3.4 0.8,-1 1.9,-1.4 3.3,-1.4 1.4,0 2.5,0.4 3.3,1.3 0.8,0.9 1.2,2.1 1.2,3.6 h -9.1 z m 1.2,7.2 c -0.9,-1.1 -1.4,-2.4 -1.5,-3.9 h 13.9 c 0.1,-0.5 0.1,-1.1 0.1,-1.9 0,-3 -0.8,-5.5 -2.5,-7.2 -1.6,-1.8 -3.9,-2.7 -6.7,-2.7 -2.8,0 -5.1,1 -6.8,2.9 -1.7,1.9 -2.6,4.5 -2.6,7.6 0,3.1 0.9,5.6 2.7,7.6 1.8,1.9 4.1,2.9 6.8,2.9 1.3,0 2.5,-0.2 3.6,-0.6 1.1,-0.4 2,-0.9 2.7,-1.5 0.7,-0.6 1.3,-1.3 1.8,-2 0.5,-0.7 0.8,-1.5 1.1,-2.2 -2.3,-0.7 -3.7,-1.1 -4,-1.1 -0.5,1.3 -1.2,2.3 -2.1,2.9 -0.9,0.6 -2,0.9 -3.1,0.9 -1.2,-0.1 -2.4,-0.6 -3.4,-1.7 M 514.6,111 v -3.7 c -0.6,-0.1 -1.2,-0.1 -1.9,-0.1 -2,0 -3.5,0.9 -4.7,2.6 l -0.4,-2.2 h -3.9 v 20.2 h 4.3 v -10.9 c 0,-2 0.4,-3.5 1.1,-4.5 0.7,-1 1.8,-1.5 3.3,-1.5 h 2.2 z"
         clip-path="url(#SVGID_00000023981820493180216610000005852466278092602283_)"
         id="path582" />
    </g>
  </g>
  <text
     xml:space="preserve"
     id="text826-7"
     style="font-weight:bold;font-size:10.6667px;font-family:Arial;-inkscape-font-specification:'Arial Bold';text-align:start;white-space:pre;shape-inside:url(#rect828-6);display:inline;fill:#4d4d4d;stroke-width:0"
     transform="translate(-38.606752,17.075244)"
     x="-46.054844"
     y="0"><tspan
       x="364.46528"
       y="6.42839"
       id="tspan975"><tspan
         style="font-weight:normal;-inkscape-font-specification:Arial;text-align:end;text-anchor:end"
         id="tspan973">Heiko Knospe
</tspan></tspan><tspan
       x="371.60072"
       y="19.761766"
       id="tspan979"><tspan
         style="font-weight:normal;-inkscape-font-specification:Arial;text-align:end;text-anchor:end"
         id="tspan977">Patricia Graf
</tspan></tspan><tspan
       x="344.90272"
       y="33.095142"
       id="tspan983"><tspan
         style="font-weight:normal;-inkscape-font-specification:Arial;text-align:end;text-anchor:end"
         id="tspan981">Andreas Schwenk</tspan></tspan></text>
  <text
     xml:space="preserve"
     id="text826-7-8"
     style="font-weight:bold;font-size:10.6667px;font-family:Arial;-inkscape-font-specification:'Arial Bold';text-align:start;white-space:pre;shape-inside:url(#rect828-6-3);display:inline;fill:#4d4d4d;stroke-width:0"
     transform="translate(-95.217638,8.360587)"
     x="-132.00304"
     y="0"><tspan
       x="105.73242"
       y="6.42839"
       id="tspan985">funded by</tspan></text>
</svg>
