<?xml version="1.0" encoding="UTF-8" standalone="no"?>
<svg
   id="Ebene_1"
   data-name="Ebene 1"
   viewBox="0 0 399.99999 100"
   version="1.1"
   sodipodi:docname="logo-institutes.svg"
   width="400"
   height="100"
   inkscape:version="1.2.1 (9c6d41e, 2022-07-14)"
   inkscape:export-filename="logo-institutes.png"
   inkscape:export-xdpi="294.91199"
   inkscape:export-ydpi="294.91199"
   xmlns:inkscape="http://www.inkscape.org/namespaces/inkscape"
   xmlns:sodipodi="http://sodipodi.sourceforge.net/DTD/sodipodi-0.dtd"
   xmlns:xlink="http://www.w3.org/1999/xlink"
   xmlns="http://www.w3.org/2000/svg"
   xmlns:svg="http://www.w3.org/2000/svg"
   xmlns:rdf="http://www.w3.org/1999/02/22-rdf-syntax-ns#"
   xmlns:cc="http://creativecommons.org/ns#"
   xmlns:dc="http://purl.org/dc/elements/1.1/">
  <sodipodi:namedview
     id="namedview195"
     pagecolor="#ffffff"
     bordercolor="#000000"
     borderopacity="0.25"
     inkscape:showpageshadow="2"
     inkscape:pageopacity="0.0"
     inkscape:pagecheckerboard="0"
     inkscape:deskcolor="#d1d1d1"
     showgrid="false"
     inkscape:zoom="1.2578993"
     inkscape:cx="266.71451"
     inkscape:cy="37.761369"
     inkscape:window-width="1470"
     inkscape:window-height="625"
     inkscape:window-x="0"
     inkscape:window-y="37"
     inkscape:window-maximized="0"
     inkscape:current-layer="Ebene_1" />
  <defs
     id="defs134">
    <rect
       x="105.73184"
       y="-3.1799047"
       width="283.01154"
       height="127.19619"
       id="rect828" />
    <style
       id="style132">.cls-1{fill:#c60c0f;}.cls-2{fill:#ea5b0c;}.cls-3{fill:#b62584;}</style>
    <clipPath
       id="SVGID_00000023981820493180216610000005852466278092602283_">
      <use
         xlink:href="#SVGID_1_"
         style="overflow:visible"
         id="use579" />
    </clipPath>
    <rect
       id="SVGID_1_"
       x="53.700001"
       y="53.700001"
       width="460.79999"
       height="141.7" />
    <rect
       x="105.73184"
       y="-3.1799047"
       width="480.96063"
       height="90.627289"
       id="rect828-6" />
  </defs>
  <title
     id="title136">Logo TH Köln RGB_22pt</title>
  <path
     class="cls-1"
     d="m 12.936568,12.111195 h -3.8 v -2.24 h 10.14 v 2.24 h -3.78 v 12.59 h -2.56 z"
     id="path138" />
  <path
     class="cls-1"
     d="m 21.236568,20.061195 a 2.72,2.72 0 0 0 3,2.86 7.42,7.42 0 0 0 2.7,-0.46 l 0.37,1.8 a 8.67,8.67 0 0 1 -3.43,0.64 c -3.26,0 -5.13,-2.11 -5.13,-5.39 0,-3.12 1.76,-5.74 4.86,-5.74 3.1,0 4.25,2.62 4.25,5.13 a 6.77,6.77 0 0 1 -0.09,1.17 h -6.53 z m 4.16,-1.85 c 0,-1.21 -0.46,-2.64 -2,-2.64 -1.54,0 -2.07,1.52 -2.16,2.64 z"
     id="path140" />
  <path
     class="cls-1"
     d="m 37.056568,24.411195 a 7,7 0 0 1 -2.66,0.48 c -3.1,0 -5.13,-2.07 -5.13,-5.46 a 5.31,5.31 0 0 1 5.57,-5.65 6,6 0 0 1 2.29,0.44 l -0.44,2 a 3.77,3.77 0 0 0 -1.75,-0.39 c -1.91,0 -3,1.54 -3,3.52 0,2.2 1.28,3.48 3,3.48 a 4.45,4.45 0 0 0 1.83,-0.37 z"
     id="path142" />
  <path
     class="cls-1"
     d="m 38.856568,9.211195 h 2.6 v 6.16 0 a 3.43,3.43 0 0 1 2.95,-1.58 c 1.78,0 3.41,1.25 3.41,4.49 v 6.45 h -2.6 v -6.26 c 0,-1.43 -0.46,-2.57 -1.83,-2.57 a 2,2 0 0 0 -1.87,1.45 2.5,2.5 0 0 0 -0.11,0.81 v 6.54 h -2.6 v -15.49 z"
     id="path144" />
  <path
     class="cls-1"
     d="m 50.516568,17.131195 c 0,-1.23 0,-2.2 -0.09,-3.15 h 2.27 l 0.13,1.5 v 0 a 3.63,3.63 0 0 1 3.17,-1.72 c 1.83,0 3.48,1.25 3.48,4.38 v 6.56 h -2.54 v -6.27 c 0,-1.41 -0.46,-2.53 -1.8,-2.53 a 2,2 0 0 0 -1.87,1.5 2.78,2.78 0 0 0 -0.13,0.9 v 6.4 h -2.6 v -7.57 z"
     id="path146" />
  <path
     class="cls-1"
     d="m 66.486568,24.921195 c -2.79,0 -4.91,-2 -4.91,-5.52 0,-3.52 2.2,-5.63 5,-5.63 2.8,0 4.86,2.16 4.86,5.5 0,4 -2.62,5.65 -5,5.65 v 0 z m 0.07,-1.91 c 1.43,0 2.27,-1.69 2.27,-3.67 0,-1.65 -0.59,-3.65 -2.27,-3.65 -1.68,0 -2.31,2 -2.31,3.67 0,2 0.81,3.65 2.29,3.65 v 0 z"
     id="path148" />
  <path
     class="cls-1"
     d="m 73.576568,9.211195 h 2.6 v 15.49 h -2.6 z"
     id="path150" />
  <path
     class="cls-1"
     d="m 83.236568,24.921195 c -2.79,0 -4.91,-2 -4.91,-5.52 0,-3.52 2.2,-5.63 5,-5.63 2.800002,0 4.860002,2.16 4.860002,5.5 0,4 -2.62,5.65 -5.000002,5.65 v 0 z m 0.07,-1.91 c 1.430002,0 2.270002,-1.69 2.270002,-3.67 0,-1.65 -0.59,-3.65 -2.270002,-3.65 -1.68,0 -2.31,2 -2.31,3.67 0,2 0.81,3.65 2.29,3.65 v 0 z"
     id="path152" />
  <path
     class="cls-1"
     d="m 99.27657,23.211195 c 0,2.33 -0.44,3.78 -1.47,4.75 a 5.64,5.64 0 0 1 -3.87,1.25 7.12,7.12 0 0 1 -3.37,-0.75 l 0.55,-2 a 5.58,5.58 0 0 0 2.82,0.75 c 1.65,0 2.77,-0.92 2.77,-3.15 v -0.85 0 a 3.12,3.12 0 0 1 -2.77,1.45 c -2.51,0 -4.16,-2.27 -4.16,-5.24 0,-3.59 2.11,-5.63 4.44,-5.63 a 3,3 0 0 1 2.72,1.54 v 0 l 0.11,-1.34 h 2.27 c 0,0.77 -0.09,1.69 -0.09,3.17 v 6.05 z m -2.6,-5.08 a 2.71,2.71 0 0 0 -0.09,-0.75 2,2 0 0 0 -1.92,-1.58 c -1.39,0 -2.33,1.36 -2.33,3.5 0,2 0.86,3.34 2.31,3.34 a 2,2 0 0 0 1.9,-1.43 3.39,3.39 0 0 0 0.13,-1 v -2.07 z"
     id="path154" />
  <path
     class="cls-1"
     d="m 103.62657,13.991195 1.72,5.76 c 0.2,0.68 0.4,1.45 0.53,2 h 0.06 c 0.15,-0.59 0.33,-1.36 0.51,-2 l 1.5,-5.76 h 2.71 l -2.49,7.42 c -1.19,3.5 -2.11,5.43 -3.34,6.65 a 5.27,5.27 0 0 1 -2.66,1.45 l -0.66,-2.2 a 4.27,4.27 0 0 0 1.54,-0.84 4.75,4.75 0 0 0 1.32,-1.65 1,1 0 0 0 0.15,-0.48 1.3,1.3 0 0 0 -0.11,-0.48 l -3.61,-9.86 h 2.84 z"
     id="path156" />
  <path
     class="cls-2"
     d="m 13.116568,42.611195 -1.12,4.09 h -2.64 l 4.33,-14.83 h 3.25 l 4.29,14.83 h -2.74 l -1.17,-4.09 z m 3.81,-2 -1,-3.59 c -0.24,-0.95 -0.48,-2 -0.68,-3 v 0 c -0.2,0.92 -0.44,2.07 -0.66,3 l -1,3.59 h 3.35 z"
     id="path158" />
  <path
     class="cls-2"
     d="m 22.936568,39.311195 c 0,-1.3 0,-2.38 -0.09,-3.32 h 2.24 l 0.11,1.91 h 0.09 a 3,3 0 0 1 2.68,-2.13 4.12,4.12 0 0 1 0.59,0 v 2.51 a 3.06,3.06 0 0 0 -0.7,-0.07 2.3,2.3 0 0 0 -2.27,2 5.13,5.13 0 0 0 -0.07,0.88 v 5.59 h -2.58 z"
     id="path160" />
  <path
     class="cls-2"
     d="m 33.736568,33.211195 v 2.73 h 2.42 v 1.91 h -2.42 v 5 c 0,1.3 0.4,1.87 1.3,1.87 a 3,3 0 0 0 0.9,-0.07 l 0.07,2 a 6.25,6.25 0 0 1 -1.85,0.24 2.89,2.89 0 0 1 -2.18,-0.81 4.1,4.1 0 0 1 -0.84,-3 v -5.18 h -1.41 v -1.91 h 1.45 v -2 z"
     id="path162" />
  <path
     class="cls-2"
     d="m 37.866568,44.301195 a 5.34,5.34 0 0 0 2.46,0.7 c 1.08,0 1.61,-0.48 1.61,-1.21 0,-0.73 -0.4,-1.1 -1.63,-1.61 -1.94,-0.79 -2.71,-1.89 -2.71,-3.12 0,-1.87 1.5,-3.3 3.83,-3.3 a 5.5,5.5 0 0 1 2.6,0.62 l -0.53,1.83 a 4.09,4.09 0 0 0 -2,-0.57 1.19,1.19 0 0 0 -1.41,1.12 c 0,0.66 0.44,1 1.69,1.52 1.8,0.75 2.66,1.76 2.66,3.26 0,2 -1.52,3.34 -4.11,3.34 a 6,6 0 0 1 -2.95,-0.7 z"
     id="path164" />
  <path
     class="cls-3"
     d="m 50.696568,43.881195 a 6.57,6.57 0 0 0 3.19,0.84 c 1.65,0 2.57,-0.81 2.57,-2 0,-1.19 -0.75,-1.8 -2.44,-2.53 -2.2,-0.92 -3.63,-2.29 -3.63,-4.27 0,-2.38 1.87,-4.22 5,-4.22 a 7.07,7.07 0 0 1 3.15,0.66 l -0.6,2.13 a 5.66,5.66 0 0 0 -2.64,-0.64 c -1.61,0 -2.31,0.9 -2.31,1.78 0,1.14 0.79,1.67 2.64,2.49 2.35,1.06 3.45,2.4 3.45,4.36 0,2.46 -1.83,4.42 -5.32,4.42 a 7.89,7.89 0 0 1 -3.59,-0.84 z"
     id="path166" />
  <path
     class="cls-3"
     d="m 68.536568,46.411195 a 7,7 0 0 1 -2.66,0.48 c -3.1,0 -5.13,-2.07 -5.13,-5.46 a 5.31,5.31 0 0 1 5.57,-5.65 6,6 0 0 1 2.29,0.44 l -0.44,2 a 3.77,3.77 0 0 0 -1.78,-0.37 c -1.91,0 -3,1.54 -3,3.52 0,2.2 1.28,3.48 3,3.48 a 4.44,4.44 0 0 0 1.83,-0.37 z"
     id="path168" />
  <path
     class="cls-3"
     d="m 71.616568,34.471195 a 1.37,1.37 0 0 1 -1.41,-1.43 1.39,1.39 0 0 1 1.45,-1.43 1.36,1.36 0 0 1 1.43,1.43 1.38,1.38 0 0 1 -1.45,1.43 v 0 z m -1.28,12.23 v -10.71 h 2.6 v 10.71 z"
     id="path170" />
  <path
     class="cls-3"
     d="m 77.556568,42.061195 a 2.72,2.72 0 0 0 3,2.86 7.43,7.43 0 0 0 2.66,-0.46 l 0.37,1.8 a 8.65,8.65 0 0 1 -3.43,0.64 c -3.26,0 -5.13,-2.11 -5.13,-5.39 0,-3.12 1.76,-5.74 4.86,-5.74 3.1,0 4.250002,2.62 4.250002,5.13 a 6.77,6.77 0 0 1 -0.09,1.17 h -6.490002 z m 4.16,-1.85 c 0,-1.21 -0.46,-2.64 -2,-2.64 -1.54,0 -2.09,1.5 -2.18,2.64 h 4.16 z"
     id="path172" />
  <path
     class="cls-3"
     d="m 86.17657,39.131195 c 0,-1.23 0,-2.2 -0.09,-3.15 h 2.27 l 0.13,1.5 v 0 a 3.63,3.63 0 0 1 3.17,-1.72 c 1.83,0 3.48,1.25 3.48,4.38 v 6.56 h -2.6 v -6.27 c 0,-1.41 -0.46,-2.53 -1.8,-2.53 a 2,2 0 0 0 -1.8,1.5 2.76,2.76 0 0 0 -0.13,0.9 v 6.4 h -2.6 v -7.57 z"
     id="path174" />
  <path
     class="cls-3"
     d="m 105.03657,46.411195 a 6.94,6.94 0 0 1 -2.66,0.48 c -3.1,0 -5.13,-2.07 -5.13,-5.46 a 5.31,5.31 0 0 1 5.57,-5.65 6,6 0 0 1 2.29,0.44 l -0.44,2 a 3.78,3.78 0 0 0 -1.78,-0.37 c -1.91,0 -3,1.54 -3,3.52 0,2.2 1.28,3.48 3,3.48 a 4.43,4.43 0 0 0 1.83,-0.37 z"
     id="path176" />
  <path
     class="cls-3"
     d="m 108.59657,42.061195 a 2.72,2.72 0 0 0 3,2.86 7.42,7.42 0 0 0 2.66,-0.46 l 0.37,1.8 a 8.66,8.66 0 0 1 -3.43,0.64 c -3.26,0 -5.13,-2.11 -5.13,-5.39 0,-3.12 1.76,-5.74 4.86,-5.74 3.1,0 4.25,2.62 4.25,5.13 a 6.87,6.87 0 0 1 -0.09,1.17 h -6.51 z m 4.16,-1.85 c 0,-1.21 -0.46,-2.64 -2,-2.64 -1.54,0 -2.09,1.5 -2.18,2.64 h 4.16 z"
     id="path178" />
  <path
     class="cls-3"
     d="m 117.08657,44.301195 a 5.34,5.34 0 0 0 2.46,0.7 c 1.08,0 1.61,-0.48 1.61,-1.21 0,-0.73 -0.4,-1.1 -1.63,-1.61 -1.94,-0.79 -2.71,-1.89 -2.71,-3.12 0,-1.87 1.5,-3.3 3.83,-3.3 a 5.49,5.49 0 0 1 2.6,0.62 l -0.53,1.83 a 4.1,4.1 0 0 0 -2,-0.57 1.2,1.2 0 0 0 -1.41,1.12 c 0,0.66 0.44,1 1.69,1.52 1.8,0.75 2.66,1.76 2.66,3.26 0,2 -1.52,3.34 -4.12,3.34 a 6,6 0 0 1 -2.95,-0.7 z"
     id="path180" />
  <path
     d="m 12.836568,58.841195 h -3.59 v -2.77 h 10.43 v 2.77 h -3.63 v 12.06 h -3.21 z"
     id="path182" />
  <path
     d="m 25.236568,56.071195 v 5.79 h 4.77 v -5.79 h 3.21 v 14.83 h -3.2 v -6.2 h -4.78 v 6.21 h -3.21 v -14.84 z"
     id="path184" />
  <path
     d="m 41.516568,56.071195 h 3.19 v 6.6 h 0.07 q 0.43,-0.89 0.92,-1.72 l 2.93,-4.88 h 3.85 l -4.44,6.36 4.64,8.47 h -3.68 l -3.21,-6.32 -1.08,1.45 v 4.86 h -3.19 z"
     id="path186" />
  <path
     d="m 58.816568,71.121195 c -3,0 -5.13,-2.07 -5.13,-5.54 0,-3.47 2.25,-5.66 5.25,-5.66 3,0 5,2.22 5,5.52 0,4.09 -2.68,5.68 -5.17,5.68 v 0 z m -2.16,-12.5 a 1.51,1.51 0 0 1 0,-3 1.51,1.51 0 0 1 0,3 z m 2.28,10.17 c 1.19,0 1.85,-1.45 1.85,-3.28 0,-1.56 -0.51,-3.26 -1.85,-3.26 -1.34,0 -2,1.7 -2,3.26 0,1.85 0.64,3.28 1.91,3.28 v 0 z m 2.1,-10.17 a 1.51,1.51 0 0 1 0,-3 1.43,1.43 0 0 1 1.43,1.5 1.45,1.45 0 0 1 -1.43,1.52 v 0 z"
     id="path188" />
  <path
     d="m 66.596568,55.391195 h 3.21 v 15.51 h -3.21 z"
     id="path190" />
  <path
     d="m 72.936568,63.531195 c 0,-1.3 0,-2.4 -0.09,-3.39 h 2.77 l 0.15,1.41 h 0.07 a 3.68,3.68 0 0 1 3.13,-1.63 c 2.16,0 3.56,1.52 3.56,4.45 v 6.54 h -3.17 v -6.21 c 0,-1.23 -0.42,-2.16 -1.52,-2.16 a 1.61,1.61 0 0 0 -1.52,1.17 2.56,2.56 0 0 0 -0.13,0.88 v 6.32 h -3.25 z"
     id="path192" />
  <metadata
     id="metadata518">
    <rdf:RDF>
      <cc:Work
         rdf:about="">
        <dc:title>Logo TH Köln RGB_22pt</dc:title>
      </cc:Work>
    </rdf:RDF>
  </metadata>
  <g
     id="g586"
     transform="matrix(0.35792903,0,0,0.35792903,167.96716,-5.311393)">
    <g
       id="g584">
      <defs
         id="defs577">
        <rect
           id="rect758"
           x="53.700001"
           y="53.700001"
           width="460.79999"
           height="141.7" />
      </defs>
      <clipPath
         id="clipPath724">
        <use
           xlink:href="#SVGID_1_"
           style="overflow:visible"
           id="use722" />
      </clipPath>
      <path
         d="m 464.6,146.7 h -3.9 V 167 h 4.3 v -10.9 c 0,-2 0.4,-3.5 1.1,-4.5 0.7,-1 1.8,-1.5 3.3,-1.5 h 2.3 v -3.7 c -0.6,-0.1 -1.2,-0.1 -1.9,-0.1 -2,0 -3.5,0.9 -4.7,2.6 z M 357,138.8 h -4.3 V 167 h 4.3 v -11 c 0,-4 1.5,-5.9 4.5,-5.9 1.6,0 2.8,0.5 3.5,1.4 0.7,0.9 1.1,2.4 1.1,4.5 v 11 h 4.3 v -11 c 0,-3.3 -0.6,-5.7 -1.9,-7.2 -1.3,-1.6 -3.3,-2.4 -6.1,-2.4 -1.2,0 -2.3,0.3 -3.2,0.8 -0.9,0.5 -1.7,1.1 -2.2,1.8 z m -0.2,-31.2 h -4.3 v 20.2 h 4.3 z m 0.2,-8 h -4.9 v 4.8 h 4.9 z m -24,49.6 c -1.7,1.9 -2.6,4.5 -2.6,7.6 0,3.2 0.9,5.7 2.6,7.6 1.7,1.9 4.1,2.9 7,2.9 1.3,0 2.4,-0.2 3.5,-0.6 1.1,-0.4 1.9,-0.9 2.7,-1.6 0.7,-0.7 1.3,-1.4 1.7,-2.2 0.4,-0.8 0.8,-1.6 0.9,-2.5 -2.2,-0.4 -3.6,-0.7 -4.3,-0.8 -0.3,1.2 -0.9,2.2 -1.6,2.9 -0.8,0.7 -1.7,1 -2.9,1 -1.7,0 -3,-0.6 -3.9,-1.9 -0.9,-1.2 -1.4,-2.9 -1.4,-5 0,-2.1 0.5,-3.7 1.4,-5 0.9,-1.2 2.2,-1.8 3.9,-1.8 1.1,0 2,0.3 2.8,1 0.8,0.7 1.3,1.6 1.7,2.9 0.2,0 1.7,-0.3 4.3,-0.8 -0.2,-0.7 -0.4,-1.4 -0.7,-2 -0.3,-0.6 -0.7,-1.2 -1.2,-1.8 -0.5,-0.6 -1.1,-1.1 -1.7,-1.5 -0.6,-0.4 -1.4,-0.8 -2.3,-1 -0.9,-0.3 -1.8,-0.4 -2.9,-0.4 -3,0.1 -5.3,1.1 -7,3 m -18.7,11 c 0,0 -1.4,0.3 -4.2,0.8 0.3,1.9 1.2,3.5 2.7,4.6 1.5,1.2 3.5,1.8 6,1.8 2.5,0 4.6,-0.6 6.2,-1.7 1.6,-1.1 2.4,-2.7 2.4,-4.8 0,-0.9 -0.2,-1.7 -0.5,-2.4 -0.3,-0.7 -0.7,-1.2 -1.2,-1.7 -0.5,-0.4 -1.1,-0.8 -1.9,-1.1 -0.8,-0.3 -1.5,-0.5 -2.3,-0.6 -0.7,-0.1 -1.6,-0.3 -2.6,-0.4 -1.3,-0.1 -2.3,-0.4 -3,-0.7 -0.6,-0.3 -1,-0.9 -1,-1.6 0,-0.6 0.3,-1.2 1,-1.6 0.7,-0.5 1.5,-0.7 2.6,-0.7 2.6,0 4,1.1 4.2,3.4 2.4,-0.5 3.8,-0.7 4.3,-0.8 -0.1,-1.1 -0.5,-2.1 -1,-2.9 -0.5,-0.8 -1.2,-1.5 -1.9,-2 -0.8,-0.5 -1.7,-0.9 -2.6,-1.1 -0.9,-0.2 -2,-0.4 -3.1,-0.4 -2.2,0 -4,0.6 -5.5,1.7 -1.5,1.2 -2.2,2.6 -2.2,4.3 0,0.9 0.1,1.7 0.4,2.4 0.3,0.7 0.7,1.2 1.1,1.6 0.5,0.4 1,0.7 1.7,1 0.6,0.3 1.3,0.4 2,0.5 0.7,0.1 1.4,0.2 2.1,0.3 0.7,0.1 1.3,0.2 2,0.3 0.6,0.1 1.2,0.2 1.7,0.4 0.5,0.2 0.9,0.4 1.1,0.8 0.3,0.3 0.4,0.8 0.4,1.3 0,0.6 -0.2,1.1 -0.5,1.5 -0.4,0.4 -0.8,0.7 -1.3,0.9 -0.5,0.2 -1,0.3 -1.4,0.3 -0.4,0.1 -0.7,0.1 -1,0.1 -2.8,0 -4.3,-1.2 -4.7,-3.5 m -21.2,-21.4 h -4.3 V 167 h 4.3 v -11 c 0,-4 1.5,-5.9 4.5,-5.9 1.6,0 2.8,0.5 3.5,1.4 0.7,0.9 1.1,2.4 1.1,4.5 v 11 h 4.3 v -11 c 0,-3.3 -0.6,-5.7 -1.9,-7.2 -1.3,-1.6 -3.3,-2.4 -6.1,-2.4 -1.2,0 -2.3,0.3 -3.2,0.8 -0.9,0.5 -1.7,1.1 -2.2,1.8 z m -3.9,-21.1 c 0,2.2 -0.5,3.9 -1.4,5.1 -0.9,1.2 -2.2,1.8 -3.7,1.8 -1.6,0 -2.8,-0.6 -3.7,-1.8 -0.9,-1.2 -1.4,-2.9 -1.4,-5.1 0,-2.2 0.5,-3.8 1.4,-5 0.9,-1.2 2.2,-1.8 3.7,-1.8 1.6,0 2.8,0.6 3.7,1.8 0.9,1.1 1.4,2.8 1.4,5 m 1.8,7.6 c 1.7,-1.9 2.5,-4.5 2.5,-7.6 0,-3.1 -0.9,-5.7 -2.6,-7.6 -1.7,-1.9 -4,-2.9 -6.9,-2.9 -2.9,0 -5.2,1 -6.9,2.9 -1.7,1.9 -2.5,4.5 -2.5,7.6 0,3.2 0.8,5.7 2.5,7.6 1.7,1.9 4,2.9 6.9,2.9 3,0 5.3,-1 7,-2.9 m -22,23.9 c -1.7,1.9 -2.6,4.5 -2.6,7.6 0,3.2 0.9,5.7 2.6,7.6 1.7,1.9 4.1,2.9 7,2.9 1.3,0 2.4,-0.2 3.5,-0.6 1.1,-0.4 1.9,-0.9 2.7,-1.6 0.7,-0.7 1.3,-1.4 1.7,-2.2 0.4,-0.8 0.8,-1.6 0.9,-2.5 -2.2,-0.4 -3.6,-0.7 -4.3,-0.8 -0.3,1.2 -0.9,2.2 -1.7,2.9 -0.8,0.7 -1.7,1 -2.9,1 -1.7,0 -3,-0.6 -3.9,-1.9 -0.9,-1.3 -1.4,-2.9 -1.4,-5 0,-2.1 0.5,-3.7 1.4,-5 0.9,-1.2 2.2,-1.8 3.9,-1.8 1.1,0 2,0.3 2.8,1 0.8,0.7 1.3,1.6 1.7,2.9 0.2,0 1.7,-0.3 4.3,-0.8 -0.2,-0.7 -0.4,-1.4 -0.7,-2 -0.3,-0.6 -0.7,-1.2 -1.2,-1.8 -0.5,-0.6 -1.1,-1.1 -1.7,-1.5 -0.6,-0.4 -1.4,-0.8 -2.3,-1 -0.9,-0.3 -1.8,-0.4 -2.9,-0.4 -2.8,0.1 -5.1,1.1 -6.9,3 m -19.7,7.6 c 0,-2.2 0.5,-3.8 1.4,-5 0.9,-1.2 2.2,-1.8 3.7,-1.8 1.6,0 2.8,0.6 3.7,1.8 0.9,1.2 1.4,2.9 1.4,5 0,2.2 -0.5,3.9 -1.4,5.1 -0.9,1.2 -2.2,1.8 -3.7,1.8 -1.6,0 -2.8,-0.6 -3.7,-1.8 -1,-1.2 -1.4,-2.9 -1.4,-5.1 m -1.8,-7.6 c -1.7,1.9 -2.5,4.5 -2.5,7.6 0,3.2 0.8,5.7 2.5,7.6 1.7,1.9 4,2.9 6.9,2.9 2.9,0 5.2,-1 6.9,-2.9 1.7,-1.9 2.5,-4.5 2.5,-7.6 0,-3.1 -0.9,-5.7 -2.6,-7.6 -1.7,-1.9 -4,-2.9 -6.9,-2.9 -2.8,0 -5.1,1 -6.8,2.9 m -8.3,-38.4 c 1.6,0 2.8,0.5 3.5,1.4 0.7,1 1.1,2.5 1.1,4.5 v 11 h 4.3 v -11 c 0,-3.3 -0.6,-5.7 -1.9,-7.3 -1.2,-1.6 -3.3,-2.3 -6.2,-2.4 -1.2,0 -2.3,0.3 -3.3,0.8 -1,0.5 -1.7,1.1 -2.1,1.8 l -0.4,-2.2 h -3.9 v 20.2 h 4.3 v -11 c 0.1,-3.8 1.6,-5.8 4.6,-5.8 m -14.3,28 h -4.5 V 167 h 4.5 V 154.4 H 237 V 167 h 4.5 V 138.8 H 237 v 11.8 h -12.1 z m 0,-39.2 h -4.5 v 28.2 h 4.5 z m -114.4,49.1 -50.3,-22.4 62.8,-25.8 50.3,22.4 z m 2.1,41.1 v -5.5 l 62.8,-25.8 v 5.5 z m 62.9,-36 -62.8,25.8 v -6.1 l 62.8,-25.8 z m -0.1,-10.8 -62.8,25.8 v -6 l 62.8,-25.7 z m 0,-10.7 -62.8,25.7 v -5.6 l 62.8,-25.7 z m 0,-13.2 -50.2,-22.3 V 59.6 l 50.1,22.6 z M 120.8,59.4 v 5.5 L 58.2,90.6 V 85.1 Z M 58.2,95.3 120.9,69.6 v 6 l -62.7,25.7 z m 0,10.8 62.7,-25.7 v 6 l -62.7,25.7 z m 0,10.7 62.7,-25.7 v 5.6 l -62.7,25.7 z m -0.1,13.4 50.1,22.3 v 37.2 L 58.1,167.1 Z M 110.4,195.5 179.8,167 179.7,79.3 123,53.8 53.8,82.2 V 170 Z M 241.2,79.7 c 0,-0.9 -0.1,-1.8 -0.4,-2.5 -0.2,-0.8 -0.5,-1.4 -0.9,-1.9 -0.4,-0.5 -0.8,-1 -1.4,-1.4 -0.6,-0.4 -1.2,-0.8 -1.7,-1 -0.6,-0.3 -1.2,-0.5 -2,-0.7 -0.8,-0.2 -1.4,-0.3 -2,-0.4 -0.6,-0.1 -1.3,-0.2 -2,-0.3 -4.2,-0.5 -6.3,-1.8 -6.3,-4 0,-0.8 0.2,-1.4 0.5,-2 0.3,-0.6 0.8,-1 1.3,-1.4 0.6,-0.3 1.2,-0.6 1.8,-0.7 0.7,-0.2 1.4,-0.2 2.1,-0.2 0.7,0 1.4,0.1 2.1,0.3 0.7,0.2 1.3,0.5 1.8,0.9 0.6,0.4 1,0.9 1.4,1.6 0.4,0.7 0.6,1.5 0.7,2.3 l 4.3,-0.7 c -0.1,-1.3 -0.4,-2.4 -1,-3.5 -0.6,-1 -1.4,-1.9 -2.3,-2.6 -1,-0.7 -2.1,-1.2 -3.3,-1.6 -1.2,-0.4 -2.5,-0.6 -3.7,-0.6 -1,0 -1.9,0.1 -2.9,0.3 -0.9,0.2 -1.8,0.5 -2.7,0.9 -0.9,0.4 -1.7,1 -2.3,1.6 -0.7,0.6 -1.2,1.4 -1.6,2.3 -0.4,0.9 -0.6,1.9 -0.6,3 0,4.5 3.5,7.1 10.4,7.8 0.6,0 1.1,0.1 1.5,0.2 0.4,0.1 0.9,0.2 1.4,0.3 0.5,0.1 0.9,0.3 1.3,0.5 0.4,0.2 0.7,0.5 1,0.8 0.3,0.3 0.6,0.7 0.7,1.1 0.2,0.5 0.2,1 0.2,1.5 0,1.5 -0.6,2.6 -1.8,3.4 -1.2,0.8 -2.7,1.2 -4.4,1.2 -1.1,0 -2.2,-0.2 -3.1,-0.6 -0.9,-0.4 -1.6,-0.9 -2.1,-1.6 -0.5,-0.6 -0.9,-1.3 -1.2,-2 -0.3,-0.7 -0.4,-1.4 -0.4,-2.1 l -4.5,0.8 c 0,0.9 0.2,1.7 0.4,2.6 0.3,0.8 0.7,1.7 1.3,2.5 0.6,0.8 1.3,1.5 2.1,2.2 0.8,0.6 1.9,1.1 3.2,1.5 1.3,0.4 2.7,0.6 4.2,0.6 3.2,0 5.8,-0.8 7.7,-2.3 2.2,-1.5 3.2,-3.6 3.2,-6.1 m 9.6,-8.9 h 4.2 v -3.2 h -4.2 v -5.9 h -4.3 v 5.9 H 243 v 3.2 h 3.5 V 82 c 0,2 0.4,3.5 1.1,4.5 0.8,1 2.1,1.5 3.9,1.5 h 0.5 l 2.6,-0.2 v -3.5 c -0.2,0 -0.6,0 -1,0 -0.4,0 -0.7,0 -0.9,0 -0.7,0 -1.2,-0.1 -1.5,-0.5 -0.3,-0.3 -0.4,-0.8 -0.4,-1.7 z m 12,36.4 c -1.2,0 -2.3,0.3 -3.3,0.8 -1,0.5 -1.7,1.1 -2.1,1.8 l -0.4,-2.2 h -3.9 v 20.2 h 4.3 v -11 c 0,-4 1.5,-6 4.5,-6 1.6,0 2.7,0.5 3.5,1.4 0.7,1 1.1,2.5 1.1,4.5 v 11 h 4.3 v -11 c 0,-3.3 -0.6,-5.7 -1.9,-7.3 -1.2,-1.4 -3.2,-2.2 -6.1,-2.2 m -2.9,-19.4 h 4.3 V 67.5 h -4.3 z m -0.2,-23.3 h 4.9 v -4.8 h -4.9 z m 18.2,-1.2 h 2.4 v -3.7 h -3 c -3.7,0 -5.6,1.8 -5.6,5.5 v 2.5 h -3.5 v 3.2 h 3.5 v 17 h 4.3 v -17 h 3.8 V 67.6 H 276 v -2.2 c 0.2,-1.4 0.7,-2.1 1.9,-2.1 m 12.3,7.5 h 4.2 v -3.2 h -4.2 v -5.9 h -4.3 v 5.9 h -3.5 v 3.2 h 3.5 V 82 c 0,2 0.4,3.5 1.1,4.5 0.8,1 2.1,1.5 3.9,1.5 h 0.5 l 2.6,-0.2 v -3.5 c -0.2,0 -0.6,0 -1,0 -0.4,0 -0.7,0 -0.9,0 -0.7,0 -1.2,-0.1 -1.5,-0.5 -0.3,-0.3 -0.4,-0.8 -0.4,-1.7 z m 8.8,36.8 h -4.5 l 7.6,20.2 h 4.3 l 7.5,-20.2 h -4.5 l -5.2,15 z m 13.2,-19.8 h 3.9 V 67.5 h -4.3 v 11 c 0,2 -0.4,3.5 -1.1,4.5 -0.7,1 -1.9,1.5 -3.4,1.5 -1.6,0 -2.7,-0.5 -3.5,-1.4 -0.7,-0.9 -1.1,-2.4 -1.1,-4.5 v -11 h -4.3 v 11 c 0,3.3 0.6,5.7 1.8,7.3 1.2,1.6 3.2,2.3 6,2.3 1.3,0 2.4,-0.3 3.4,-0.8 1,-0.5 1.7,-1.1 2.1,-1.8 z m 16.5,31.2 v 1 c 0,1.2 -0.5,2.3 -1.5,3.2 -1,0.9 -2.3,1.4 -4,1.4 -1.2,0 -2.1,-0.3 -2.7,-0.8 -0.6,-0.5 -0.9,-1.2 -0.9,-2 0,-0.3 0.1,-0.6 0.2,-0.9 0.1,-0.3 0.3,-0.6 0.6,-0.9 0.3,-0.3 0.7,-0.6 1.3,-0.8 0.6,-0.2 1.3,-0.3 2.2,-0.3 h 4.8 z m -4.3,-11.8 c -1.5,0 -2.8,0.2 -4,0.7 -1.2,0.5 -2.2,1.2 -3,2.2 -0.8,1 -1.3,2.2 -1.4,3.7 0.5,0.1 1.2,0.2 2.2,0.4 1,0.2 1.7,0.3 2.1,0.4 0,-1.2 0.4,-2.1 1.1,-2.7 0.7,-0.6 1.7,-0.9 3,-0.9 0.7,0 1.3,0.1 1.9,0.2 0.5,0.2 1,0.4 1.3,0.6 0.3,0.2 0.6,0.5 0.8,0.9 0.2,0.3 0.3,0.7 0.4,1 0.1,0.3 0.1,0.6 0.1,1 v 1.2 h -5.2 c -2.5,0 -4.6,0.6 -6,1.8 -1.5,1.2 -2.2,2.6 -2.2,4.3 0,1.9 0.7,3.5 2,4.7 1.3,1.2 3.2,1.8 5.5,1.8 1.5,0 2.8,-0.4 3.9,-1 1.1,-0.6 1.9,-1.3 2.5,-2 0.2,0.9 0.5,1.6 1.1,2.1 0.6,0.5 1.4,0.8 2.4,0.8 0.9,0 1.7,-0.1 2.6,-0.3 v -3.5 c -0.3,0.1 -0.6,0.2 -1,0.2 -0.4,0 -0.7,-0.2 -0.9,-0.5 -0.2,-0.3 -0.2,-0.8 -0.2,-1.4 v -7 c 0,-2.8 -0.7,-4.8 -2.2,-6.2 -1.8,-1.8 -4,-2.5 -6.8,-2.5 M 335,87.8 h 4.3 v -11 c 0,-3.3 -0.6,-5.7 -1.9,-7.3 -1.2,-1.6 -3.3,-2.3 -6.2,-2.4 -1.2,0 -2.3,0.3 -3.3,0.8 -1,0.5 -1.7,1.1 -2.1,1.8 l -0.4,-2.2 h -3.9 v 20.2 h 4.3 v -11 c 0,-4 1.5,-6 4.5,-6 1.6,0 2.7,0.5 3.5,1.4 0.7,1 1.1,2.5 1.1,4.5 v 11.2 z m 4.3,13.9 v 5.9 h -3.5 v 3.2 h 3.5 V 122 c 0,2 0.4,3.5 1.1,4.5 0.8,1 2.1,1.5 3.9,1.5 h 0.5 l 2.6,-0.2 v -3.5 c -0.2,0 -0.6,0 -1,0 -0.4,0 -0.7,0 -0.9,0 -0.7,0 -1.2,-0.2 -1.5,-0.5 -0.3,-0.3 -0.4,-0.9 -0.4,-1.6 v -11.5 h 4.2 v -3.2 h -4.2 v -5.9 h -4.3 z m 18.4,-24.1 c 0,2.2 -0.4,3.9 -1.3,5.1 -0.9,1.2 -2.1,1.8 -3.7,1.8 -1.6,0 -2.9,-0.6 -3.8,-1.8 -0.9,-1.2 -1.4,-2.9 -1.4,-5.1 0,-2.2 0.5,-3.8 1.4,-5 0.9,-1.2 2.2,-1.8 3.8,-1.8 1.6,0 2.8,0.6 3.7,1.8 0.9,1.2 1.3,2.9 1.3,5 m 1.7,16.1 c 1.7,-1.6 2.6,-3.8 2.6,-6.8 V 67.5 h -4 l -0.4,2.6 c -0.4,-0.8 -1.1,-1.5 -2.2,-2.1 -1.1,-0.6 -2.2,-0.9 -3.5,-0.9 -2.6,0 -4.8,1 -6.4,2.9 -1.7,2 -2.5,4.5 -2.5,7.6 0,3.1 0.8,5.6 2.5,7.6 1.7,2 3.8,2.9 6.4,2.9 1.2,0 2.3,-0.3 3.4,-0.8 1.1,-0.5 1.9,-1.2 2.3,-2 v 1.5 c 0,1.7 -0.4,3 -1.3,4 -0.9,1 -2.1,1.5 -3.7,1.5 -1.1,0 -2.1,-0.3 -3,-0.8 -0.9,-0.5 -1.4,-1.2 -1.6,-2 l -4.2,1.2 c 0.4,1.7 1.4,3 3,3.9 1.6,0.9 3.5,1.4 5.8,1.4 2.8,0.1 5.1,-0.7 6.8,-2.3 m 16.4,24 c 0,2.2 -0.5,3.9 -1.4,5.1 -0.9,1.2 -2.2,1.8 -3.7,1.8 -1.6,0 -2.8,-0.6 -3.7,-1.8 -0.9,-1.2 -1.4,-2.9 -1.4,-5.1 0,-2.2 0.5,-3.8 1.4,-5 0.9,-1.2 2.2,-1.8 3.7,-1.8 1.6,0 2.8,0.6 3.7,1.8 1,1.1 1.4,2.8 1.4,5 m 1.8,7.6 c 1.7,-1.9 2.5,-4.5 2.5,-7.6 0,-3.1 -0.9,-5.7 -2.6,-7.6 -1.7,-1.9 -4,-2.9 -6.9,-2.9 -2.9,0 -5.2,1 -6.9,2.9 -1.7,1.9 -2.5,4.5 -2.5,7.6 0,3.2 0.8,5.7 2.5,7.6 1.7,1.9 4,2.9 6.9,2.9 3,0 5.3,-1 7,-2.9 m 5.9,38.4 c -1.6,0 -2.7,-0.5 -3.5,-1.4 -0.7,-0.9 -1.1,-2.4 -1.1,-4.5 v -11 h -4.3 v 11 c 0,3.3 0.6,5.7 1.8,7.3 1.2,1.6 3.2,2.3 6,2.3 1.3,0 2.4,-0.3 3.4,-0.8 1,-0.5 1.7,-1.1 2.1,-1.8 l 0.4,2.2 h 3.9 V 146.8 H 388 v 11 c 0,2 -0.4,3.5 -1.1,4.5 -0.8,0.9 -1.9,1.4 -3.4,1.4 m 14.3,-35.9 h 4.3 v -11 c 0,-3.3 -0.6,-5.7 -1.9,-7.3 -1.2,-1.6 -3.3,-2.3 -6.2,-2.4 -1.2,0 -2.3,0.3 -3.3,0.8 -1,0.5 -1.7,1.1 -2.1,1.8 l -0.4,-2.2 h -3.9 v 20.2 h 4.3 v -11 c 0,-4 1.5,-6 4.5,-6 1.6,0 2.7,0.5 3.5,1.4 0.7,1 1.1,2.5 1.1,4.5 v 11.2 z m 0,39.2 h 4.3 v -28.2 h -4.3 z m 9.7,0 h 4.3 v -28.2 h -4.3 z m 8.7,-62.5 h 4.9 v -4.8 h -4.9 z m 4.6,3.1 h -4.3 v 20.2 h 4.3 z m 8.8,47.3 h -9.2 c 0.1,-1.3 0.5,-2.5 1.3,-3.4 0.8,-1 1.9,-1.4 3.3,-1.4 1.4,0 2.5,0.4 3.3,1.3 0.8,0.8 1.2,2 1.3,3.5 m 2.1,-5.9 c -1.6,-1.8 -3.9,-2.7 -6.7,-2.7 -2.8,0 -5.1,1 -6.8,2.9 -1.7,1.9 -2.6,4.5 -2.6,7.6 0,3.1 0.9,5.6 2.7,7.6 1.8,1.9 4.1,2.9 6.8,2.9 1.3,0 2.5,-0.2 3.6,-0.6 1.1,-0.4 2,-0.9 2.7,-1.5 0.7,-0.6 1.3,-1.3 1.8,-2 0.5,-0.7 0.8,-1.5 1.1,-2.2 -2.3,-0.7 -3.7,-1.1 -4,-1.1 -0.5,1.3 -1.2,2.3 -2.1,2.9 -0.9,0.6 -2,0.9 -3.1,0.9 -1.4,0 -2.6,-0.5 -3.6,-1.6 -0.9,-1.1 -1.4,-2.4 -1.5,-3.9 h 13.9 c 0.1,-0.5 0.1,-1.1 0.1,-1.9 0.2,-3.1 -0.6,-5.5 -2.3,-7.3 m 8.3,-21.2 h 4.3 v -11 c 0,-3.3 -0.6,-5.7 -1.9,-7.3 -1.2,-1.6 -3.3,-2.3 -6.2,-2.4 -1.2,0 -2.3,0.3 -3.3,0.8 -1,0.5 -1.7,1.1 -2.1,1.8 l -0.4,-2.2 h -3.9 v 20.2 h 4.3 v -11 c 0,-4 1.5,-6 4.5,-6 1.6,0 2.7,0.5 3.5,1.4 0.7,1 1.1,2.5 1.1,4.5 v 11.2 z m 12,39.2 h 4.3 v -11 c 0,-3.3 -0.6,-5.7 -1.9,-7.2 -1.3,-1.6 -3.3,-2.4 -6.1,-2.4 -1.2,0 -2.3,0.3 -3.2,0.8 -0.9,0.5 -1.7,1.1 -2.2,1.8 v -10.1 h -4.3 V 167 h 4.3 v -11 c 0,-4 1.5,-5.9 4.5,-5.9 1.6,0 2.8,0.5 3.5,1.4 0.7,0.9 1.1,2.4 1.1,4.5 z m 19.8,-49.3 c 0,2.2 -0.4,3.9 -1.3,5.1 -0.9,1.2 -2.1,1.8 -3.7,1.8 -1.6,0 -2.9,-0.6 -3.8,-1.8 -0.9,-1.2 -1.4,-2.9 -1.4,-5 0,-2.2 0.5,-3.8 1.4,-5 0.9,-1.2 2.2,-1.8 3.8,-1.8 1.6,0 2.8,0.6 3.7,1.8 0.9,1 1.3,2.7 1.3,4.9 m 0.4,10.1 h 4 V 99.6 h -4.3 V 110 c -0.5,-0.7 -1.3,-1.3 -2.4,-1.9 -1.1,-0.6 -2.2,-0.9 -3.5,-0.9 -2.7,0 -4.8,1 -6.4,2.9 -1.6,1.9 -2.4,4.5 -2.4,7.6 0,3.1 0.8,5.6 2.5,7.6 1.6,2 3.7,2.9 6.3,2.9 1.3,0 2.5,-0.3 3.6,-0.9 1.1,-0.6 1.8,-1.3 2.3,-2 z m 7.5,23.7 c 0.8,-1 1.9,-1.4 3.3,-1.4 1.4,0 2.5,0.4 3.3,1.3 0.8,0.9 1.2,2.1 1.2,3.6 h -9.2 c 0.2,-1.4 0.6,-2.6 1.4,-3.5 m 3.3,-5.2 c -2.8,0 -5.1,1 -6.8,2.9 -1.7,1.9 -2.5,4.5 -2.5,7.6 0,3.1 0.9,5.6 2.7,7.6 1.8,1.9 4.1,2.9 6.8,2.9 1.3,0 2.5,-0.2 3.6,-0.6 1.1,-0.4 2,-0.9 2.7,-1.5 0.7,-0.6 1.3,-1.3 1.8,-2 0.5,-0.7 0.8,-1.5 1.1,-2.2 -2.3,-0.7 -3.7,-1.1 -4,-1.1 -0.5,1.3 -1.2,2.3 -2.1,2.9 -0.9,0.6 -2,0.9 -3.1,0.9 -1.4,0 -2.6,-0.5 -3.6,-1.6 -0.9,-1.1 -1.4,-2.4 -1.5,-3.9 H 492 c 0.1,-0.5 0.1,-1.1 0.1,-1.9 0,-3 -0.8,-5.5 -2.5,-7.2 -1.5,-1.9 -3.8,-2.8 -6.6,-2.8 m 2.1,-30.6 c 0.1,-1.3 0.5,-2.5 1.3,-3.4 0.8,-1 1.9,-1.4 3.3,-1.4 1.4,0 2.5,0.4 3.3,1.3 0.8,0.9 1.2,2.1 1.2,3.6 h -9.1 z m 1.2,7.2 c -0.9,-1.1 -1.4,-2.4 -1.5,-3.9 h 13.9 c 0.1,-0.5 0.1,-1.1 0.1,-1.9 0,-3 -0.8,-5.5 -2.5,-7.2 -1.6,-1.8 -3.9,-2.7 -6.7,-2.7 -2.8,0 -5.1,1 -6.8,2.9 -1.7,1.9 -2.6,4.5 -2.6,7.6 0,3.1 0.9,5.6 2.7,7.6 1.8,1.9 4.1,2.9 6.8,2.9 1.3,0 2.5,-0.2 3.6,-0.6 1.1,-0.4 2,-0.9 2.7,-1.5 0.7,-0.6 1.3,-1.3 1.8,-2 0.5,-0.7 0.8,-1.5 1.1,-2.2 -2.3,-0.7 -3.7,-1.1 -4,-1.1 -0.5,1.3 -1.2,2.3 -2.1,2.9 -0.9,0.6 -2,0.9 -3.1,0.9 -1.2,-0.1 -2.4,-0.6 -3.4,-1.7 M 514.6,111 v -3.7 c -0.6,-0.1 -1.2,-0.1 -1.9,-0.1 -2,0 -3.5,0.9 -4.7,2.6 l -0.4,-2.2 h -3.9 v 20.2 h 4.3 v -10.9 c 0,-2 0.4,-3.5 1.1,-4.5 0.7,-1 1.8,-1.5 3.3,-1.5 h 2.2 z"
         clip-path="url(#SVGID_00000023981820493180216610000005852466278092602283_)"
         id="path582" />
    </g>
  </g>
  <text
     xml:space="preserve"
     id="text826-7"
     style="font-weight:bold;font-size:10.6667px;font-family:Arial;-inkscape-font-specification:'Arial Bold';text-align:start;white-space:pre;shape-inside:url(#rect828-6);display:inline;fill:#4d4d4d;stroke-width:0"
     transform="translate(-94.606752,87.075244)"
     x="-132.00304"
     y="0"><tspan
       x="105.73242"
       y="6.42839"
       id="tspan1342"><tspan
         style="font-weight:normal;-inkscape-font-specification:Arial"
         id="tspan1340">Heiko Knospe, Patricia Graf, Andreas Schwenk</tspan></tspan></text>
</svg>
