<?xml version="1.0" encoding="UTF-8" standalone="no"?>
<svg
   sodipodi:docname="logo-large-no-text-2.svg"
   inkscape:version="1.2.1 (9c6d41e, 2022-07-14)"
   id="svg1475"
   version="1.1"
   viewBox="0 0 200 64"
   height="64mm"
   width="200mm"
   inkscape:export-filename="logo-large-no-text.png"
   inkscape:export-xdpi="195.07199"
   inkscape:export-ydpi="195.07199"
   xmlns:inkscape="http://www.inkscape.org/namespaces/inkscape"
   xmlns:sodipodi="http://sodipodi.sourceforge.net/DTD/sodipodi-0.dtd"
   xmlns="http://www.w3.org/2000/svg"
   xmlns:svg="http://www.w3.org/2000/svg"
   xmlns:rdf="http://www.w3.org/1999/02/22-rdf-syntax-ns#"
   xmlns:cc="http://creativecommons.org/ns#"
   xmlns:dc="http://purl.org/dc/elements/1.1/">
  <defs
     id="defs1469">
    <rect
       x="12.656045"
       y="36.16013"
       width="769.75276"
       height="347.65509"
       id="rect24427" />
    <rect
       x="30.736111"
       y="37.968136"
       width="506.24182"
       height="175.37663"
       id="rect24421" />
    <rect
       x="391.35953"
       y="14.615086"
       width="678.78955"
       height="457.93936"
       id="rect49774" />
    <rect
       x="67.598274"
       y="51.099167"
       width="306.16714"
       height="53.715561"
       id="rect2754" />
    <rect
       id="rect3953"
       height="52.462029"
       width="94.885414"
       y="13.447483"
       x="65.976715" />
    <rect
       id="rect3953-2"
       height="65.527328"
       width="220.95096"
       y="13.447483"
       x="65.976715" />
    <rect
       id="rect3953-0"
       height="93.880669"
       width="156.53288"
       y="13.447483"
       x="65.976715" />
    <rect
       id="rect3953-0-0"
       height="58.270321"
       width="267.63519"
       y="13.447483"
       x="65.976715" />
    <rect
       x="391.35953"
       y="14.615086"
       width="678.78955"
       height="457.93936"
       id="rect49774-6" />
    <rect
       x="391.35953"
       y="14.615086"
       width="678.78955"
       height="457.93936"
       id="rect49774-6-2" />
    <rect
       x="391.35953"
       y="14.615086"
       width="678.78955"
       height="457.93936"
       id="rect49774-3" />
    <rect
       x="12.656045"
       y="36.16013"
       width="1021.4788"
       height="222.24641"
       id="rect24427-9" />
    <rect
       x="12.656045"
       y="36.16013"
       width="578.56207"
       height="343.52124"
       id="rect24427-4" />
    <rect
       x="12.656045"
       y="36.16013"
       width="769.75275"
       height="347.65509"
       id="rect24427-95" />
    <rect
       x="12.656045"
       y="36.16013"
       width="769.75275"
       height="347.65509"
       id="rect24427-6" />
  </defs>
  <sodipodi:namedview
     inkscape:window-maximized="1"
     inkscape:window-y="37"
     inkscape:window-x="0"
     inkscape:window-height="847"
     inkscape:window-width="1470"
     showgrid="false"
     inkscape:document-rotation="0"
     inkscape:current-layer="layer1"
     inkscape:document-units="mm"
     inkscape:cy="248.5479"
     inkscape:cx="359.12846"
     inkscape:zoom="0.96762034"
     inkscape:pageshadow="2"
     inkscape:pageopacity="0.0"
     borderopacity="1.0"
     bordercolor="#666666"
     pagecolor="#ffffff"
     id="base"
     inkscape:showpageshadow="2"
     inkscape:pagecheckerboard="0"
     inkscape:deskcolor="#d1d1d1" />
  <metadata
     id="metadata1472">
    <rdf:RDF>
      <cc:Work
         rdf:about="">
        <dc:format>image/svg+xml</dc:format>
        <dc:type
           rdf:resource="http://purl.org/dc/dcmitype/StillImage" />
      </cc:Work>
    </rdf:RDF>
  </metadata>
  <g
     id="layer1"
     inkscape:groupmode="layer"
     inkscape:label="Layer 1">
    <text
       xml:space="preserve"
       transform="matrix(0.26458333,0,0,0.26458333,3.6220842,23.411628)"
       id="text24425"
       style="font-size:69.3333px;font-family:Arial;-inkscape-font-specification:Arial;text-align:start;white-space:pre;shape-inside:url(#rect24427);display:inline;fill:#b92323;fill-opacity:1;stroke:#b92323;stroke-opacity:1"
       x="-227.99989"
       y="0"><tspan
         x="12.65625"
         y="98.612431"
         id="tspan975">MATHE</tspan></text>
    <path
       sodipodi:nodetypes="asczsszsszszsssssa"
       id="path10-9-0-7"
       d="M 89.446744,46.216767 C 85.102137,43.356254 85.977177,36.87303 85.858337,31.029715 85.739507,25.1864 85.656657,16.76612 88.170174,15.172218 c 5.165487,-2.707346 7.239297,2.19695 11.177892,2.267624 3.938624,0.07067 7.705794,-4.648618 11.845584,-2.167158 1.94289,1.164603 0.99943,5.119228 2.41391,7.058838 1.08188,1.483527 7.52088,1.101809 8.53677,-0.50203 1.01589,-1.60384 -5.6e-4,-8.79278 -1.26133,-11.221084 -1.91246,-3.6835566 -7.0752,-7.0677286 -12.48187,-5.2407206 -3.12469,1.055892 -6.28888,3.5060675 -8.907297,3.4578795 C 96.875431,8.7773769 94.809121,6.2088414 90.933784,5.2202024 84.522997,3.5847464 80.91076,5.6452354 79.06686,9.5331233 77.22297,13.421013 76.56763,25.738993 76.93707,33.87585 c 0.30613,6.742396 -0.36935,14.313906 6.244037,18.648607 11.200604,7.34136 38.729203,5.716777 38.635843,-11.01878 -0.0903,-16.187445 -32.011786,-14.330028 -30.500886,-7.613786 1.512627,6.723925 20.353366,-1.519435 21.037026,8.292606 0.48474,6.956922 -16.431009,8.295671 -22.906346,4.03227 z"
       style="mix-blend-mode:normal;fill:#b92323;fill-opacity:1;stroke:#b92323;stroke-width:0.161908px;stroke-linecap:butt;stroke-linejoin:miter;stroke-opacity:1" />
    <text
       xml:space="preserve"
       transform="matrix(0.26458333,0,0,0.26458333,126.61381,23.299662)"
       id="text24425-7"
       style="font-size:69.3333px;font-family:Arial;-inkscape-font-specification:Arial;text-align:start;white-space:pre;shape-inside:url(#rect24427-6);display:inline;fill:#b92323;fill-opacity:1;stroke:#b92323;stroke-opacity:1"
       x="-227.99989"
       y="0"><tspan
         x="12.65625"
         y="98.612431"
         id="tspan977">BUDDY</tspan></text>
  </g>
</svg>
